<?xml version="1.0" encoding="UTF-8"?>
<svg version="1.1" xmlns="http://www.w3.org/2000/svg" width="1563" height="1563">
<path d="M0 0 C515.79 0 1031.58 0 1563 0 C1563 515.79 1563 1031.58 1563 1563 C1047.21 1563 531.42 1563 0 1563 C0 1047.21 0 531.42 0 0 Z " fill="#0E008E" transform="translate(0,0)"/>
<path d="M0 0 C17.2425 -0.061875 34.485 -0.12375 52.25 -0.1875 C57.67469727 -0.21481201 63.09939453 -0.24212402 68.68847656 -0.27026367 C75.36279297 -0.28381348 75.36279297 -0.28381348 78.49700928 -0.28633118 C80.66483411 -0.29090842 82.83265178 -0.30139785 85.00042725 -0.31672668 C103.22816496 -0.43906655 120.7647264 -0.00134925 135 13 C137.33259161 15.49959009 139.21349287 18.08767625 141 21 C141.41507813 21.65871094 141.83015625 22.31742188 142.2578125 22.99609375 C145.30479144 28.97286013 145.38372207 34.98843423 145.4375 41.5625 C145.44765137 42.44897217 145.45780273 43.33544434 145.46826172 44.2487793 C145.34381821 53.68983483 142.91305748 61.80196239 136.31640625 68.78125 C129.32959164 75.41661519 121.23889469 77.94691229 112 80 C112.70125 80.20753906 113.4025 80.41507813 114.125 80.62890625 C124.68648854 84.05852006 130.23302219 88.69292534 135.25 98.5 C138.90101543 106.08454991 141.27473787 113.76250453 143 122 C143.31928467 123.5154541 143.31928467 123.5154541 143.64501953 125.06152344 C148 145.93758687 148 145.93758687 148 149 C140.41 149 132.82 149 125 149 C124.48050781 146.51726562 123.96101563 144.03453125 123.42578125 141.4765625 C122.9060232 139.03980966 122.38157793 136.60410926 121.85668945 134.16845703 C121.49794973 132.49176326 121.14399355 130.81403785 120.79516602 129.13525391 C118.21338017 116.54053255 118.21338017 116.54053255 113.03979492 104.82568359 C112 103 112 103 111 100 C109.15140901 98.88010108 109.15140901 98.88010108 107 98 C106.39800781 97.67 105.79601562 97.34 105.17578125 97 C104.56089844 96.67 103.94601562 96.34 103.3125 96 C102.71050781 95.67 102.10851562 95.34 101.48828125 95 C92.63404838 91.44162698 83.61298566 91.73621667 74.24609375 91.8046875 C72.734382 91.80842449 71.22266781 91.81126821 69.71095276 91.81326294 C65.76049946 91.82084547 61.81019668 91.84044674 57.85980225 91.8626709 C53.10478576 91.88687311 48.34971854 91.89593597 43.5946579 91.90757751 C36.39633439 91.92687508 29.19834017 91.96523474 22 92 C21.67 110.81 21.34 129.62 21 149 C14.07 149 7.14 149 0 149 C0 99.83 0 50.66 0 0 Z " fill="#80E1F6" transform="translate(295,701)"/>
<path d="M0 0 C1.40907283 2.81814566 0.50872691 4.17277204 -0.4375 7.125 C-0.86869141 8.49011719 -0.86869141 8.49011719 -1.30859375 9.8828125 C-1.53675781 10.58148437 -1.76492188 11.28015625 -2 12 C-0.85337891 12.02126953 -0.85337891 12.02126953 0.31640625 12.04296875 C23.67226317 13.08288055 43.09247534 25.32194839 58.8125 41.875 C67.8906054 52.46612297 73.04404525 63.79247623 77 77 C77.37898437 78.22976563 77.75796875 79.45953125 78.1484375 80.7265625 C79.48211748 86.26776588 79.29917364 91.89523778 79.25 97.5625 C79.24033203 98.72056152 79.23066406 99.87862305 79.22070312 101.07177734 C78.97182953 118.84384102 76.83524319 134.25318264 64.125 147.625 C40.33122849 169.05728442 1.53935804 171.22490416 -29 170 C-30.33804688 169.94634277 -30.33804688 169.94634277 -31.703125 169.89160156 C-56.35711489 168.72530439 -80.37850841 163.54352622 -103.20825195 154.10180664 C-106.01458458 152.94018683 -106.01458458 152.94018683 -109.07885742 152.13061523 C-112.27195291 151.08496419 -114.44827204 150.19772444 -117 148 C-118.78269413 143.14865296 -118.99750272 138.30520814 -119.1875 133.1875 C-119.27707155 131.81282784 -119.3714267 130.43845851 -119.47070312 129.06445312 C-119.69435861 125.70962079 -119.86884599 122.35951154 -120 119 C-116.48464933 120.13079675 -113.10817771 121.3237473 -109.77734375 122.91796875 C-93.81668131 130.41150225 -77.39210337 136.75429057 -60 140 C-58.73671875 140.27714844 -57.4734375 140.55429687 -56.171875 140.83984375 C-44.17022643 143.22770563 -32.12707987 143.32387973 -19.9375 143.375 C-19.09617523 143.38276459 -18.25485046 143.39052917 -17.38803101 143.39852905 C-8.05622572 143.46630797 1.03792979 143.07839825 10.26953125 141.64453125 C11.41748924 141.46626297 11.41748924 141.46626297 12.58863831 141.28439331 C23.80570821 139.36259926 34.60519651 134.97475049 42 126 C46.98632644 117.54553032 48.7503284 107.81106051 46.28125 98.203125 C42.9501123 89.33800046 38.51411142 84.62647193 30.1640625 80.31640625 C24.61951276 78.00959976 18.88965427 77.03305166 13 76 C9.7 75.34 6.4 74.68 3 74 C3 65.75 3 57.5 3 49 C23.50985056 51.27887228 44.7133917 53.79768826 62 66 C49.99017891 47.63036821 34.84905615 33.64630638 12.8046875 28.8125 C7.88396228 27.79150371 2.94856222 26.87528917 -2 26 C-1.505 31.445 -1.505 31.445 -1 37 C-6.86087982 34.65564807 -12.24522272 31.66693001 -17.74804688 28.60522461 C-19.62308716 27.56356266 -21.50274921 26.53060905 -23.3828125 25.49804688 C-24.58102038 24.83385841 -25.7789469 24.16916208 -26.9765625 23.50390625 C-28.06018066 22.90392822 -29.14379883 22.3039502 -30.26025391 21.68579102 C-32.56085172 20.27021198 -34.23352023 19.01406332 -36 17 C-26.5650158 12.16958921 -17.07350875 7.61636676 -7.328125 3.4453125 C-4.83689755 2.36344142 -2.40765466 1.25246682 0 0 Z " fill="#80DFF6" transform="translate(814,711)"/>
<path d="M0 0 C2.93706005 0.03140978 5.87357863 0.04102058 8.81079102 0.046875 C36.02251284 0.15648429 36.02251284 0.15648429 47.48461914 2.90625 C48.21592041 3.07592285 48.94722168 3.2455957 49.70068359 3.42041016 C59.34643939 5.72724274 68.87685122 8.46886643 78.3425293 11.42285156 C80.09283517 11.96582628 81.8473474 12.4955734 83.60717773 13.00683594 C88.0696387 14.3149132 92.23250486 15.63304248 96.10961914 18.28125 C97.99206275 21.97330459 98.13358599 25.18891112 98.10961914 29.28125 C98.31586914 30.4775 98.52211914 31.67375 98.73461914 32.90625 C99.04088053 35.6626025 99.14815703 38.22881687 99.13305664 40.9921875 C99.12967285 41.7970459 99.12628906 42.6019043 99.12280273 43.43115234 C99.11845215 44.04168457 99.11410156 44.6522168 99.10961914 45.28125 C98.53856445 45.045271 97.96750977 44.80929199 97.37915039 44.56616211 C55.39356515 27.34890155 2.1276964 14.31126561 -41.76147461 32.5859375 C-48.02913368 35.9818976 -51.80438878 39.88067384 -54.89038086 46.28125 C-56.97894777 54.7461702 -56.67498488 63.37080718 -52.89038086 71.28125 C-47.89944831 79.49213903 -38.6876924 82.69801654 -29.72558594 85.02294922 C-26.45694046 85.81973178 -23.17422854 86.55002886 -19.89038086 87.28125 C-17.25038086 87.94125 -14.61038086 88.60125 -11.89038086 89.28125 C-11.89038086 97.53125 -11.89038086 105.78125 -11.89038086 114.28125 C-31.09409844 112.80404096 -48.84673146 109.22635049 -65.87084961 99.91796875 C-68.81067862 98.21111043 -68.81067862 98.21111043 -71.89038086 97.28125 C-59.06581937 115.66195665 -43.50158633 130.45299259 -20.89038086 135.28125 C-16.56822164 136.04256678 -12.24046848 136.70169287 -7.89038086 137.28125 C-8.22038086 133.65125 -8.55038086 130.02125 -8.89038086 126.28125 C-5.49269158 127.64032571 -2.54052147 128.92970241 0.62133789 130.671875 C1.45761719 131.13166748 2.29389648 131.59145996 3.15551758 132.06518555 C4.02724609 132.54898682 4.89897461 133.03278809 5.79711914 133.53125 C6.68818359 134.02343018 7.57924805 134.51561035 8.49731445 135.02270508 C14.44451313 138.32084533 20.33840723 141.68183625 26.10961914 145.28125 C23.69622743 148.03246643 21.23537831 149.33665848 17.91821289 150.83984375 C16.89018555 151.30841797 15.8621582 151.77699219 14.80297852 152.25976562 C13.72854492 152.74123047 12.65411133 153.22269531 11.54711914 153.71875 C9.97607422 154.43514648 9.97607422 154.43514648 8.37329102 155.16601562 C2.01485053 158.04687524 -4.38988415 160.73757737 -10.89038086 163.28125 C-9.90038086 159.32125 -8.91038086 155.36125 -7.89038086 151.28125 C-9.3927832 151.32765625 -9.3927832 151.32765625 -10.92553711 151.375 C-32.00711466 150.87651935 -52.55515188 137.91465175 -66.89038086 123.28125 C-83.69232165 104.10299478 -90.62089895 81.26623176 -89.1340332 56.05615234 C-87.84960831 41.4281229 -82.55440749 28.77037205 -71.77319336 18.6328125 C-51.59575212 2.17370732 -25.09349077 -0.26966391 0 0 Z " fill="#80E0F6" transform="translate(782.890380859375,665.71875)"/>
<path d="M0 0 C43.56 0 87.12 0 132 0 C132 5.61 132 11.22 132 17 C95.37 17 58.74 17 21 17 C21 32.84 21 48.68 21 65 C56.64 65 92.28 65 129 65 C129 70.61 129 76.22 129 82 C93.36 82 57.72 82 21 82 C21 98.5 21 115 21 132 C57.96 132 94.92 132 133 132 C133 137.61 133 143.22 133 149 C89.11 149 45.22 149 0 149 C0 99.83 0 50.66 0 0 Z " fill="#80E1F7" transform="translate(505,701)"/>
<path d="M0 0 C43.23 0 86.46 0 131 0 C131 5.61 131 11.22 131 17 C94.7 17 58.4 17 21 17 C21 32.84 21 48.68 21 65 C56.31 65 91.62 65 128 65 C128 70.61 128 76.22 128 82 C92.69 82 57.38 82 21 82 C21 98.5 21 115 21 132 C57.96 132 94.92 132 133 132 C133 137.61 133 143.22 133 149 C89.11 149 45.22 149 0 149 C0 99.83 0 50.66 0 0 Z " fill="#7FE1F6" transform="translate(943,701)"/>
<path d="M0 0 C9.90136726 -0.0464403 19.8027084 -0.08192851 29.7041626 -0.10362434 C34.30232606 -0.11403981 38.90041473 -0.12815799 43.49853516 -0.15087891 C47.94002004 -0.17268727 52.38143321 -0.18458544 56.82296753 -0.18975449 C58.51334766 -0.19343593 60.20372408 -0.20062474 61.89407349 -0.21146011 C64.27061294 -0.22608147 66.64685995 -0.22797353 69.0234375 -0.22705078 C70.06030449 -0.23783661 70.06030449 -0.23783661 71.11811829 -0.24884033 C79.70697833 -0.21300172 88.54482423 1.90368907 94.98828125 7.828125 C100.88349811 14.22376399 102.35019962 19.90984643 102.3125 28.4375 C102.32861328 29.16259766 102.34472656 29.88769531 102.36132812 30.63476562 C102.36853749 38.65879112 99.32002601 44.38584183 93.94921875 50.20703125 C84.15611157 59.21511982 70.38343454 58.2901059 57.96875 58.23046875 C56.32491085 58.22927496 54.68107101 58.22882421 53.03723145 58.2290802 C49.61136538 58.22752403 46.18560511 58.21929551 42.75976562 58.20581055 C38.3601578 58.18871416 33.9606647 58.18499972 29.56102753 58.18575573 C26.17597349 58.18548464 22.79094471 58.180015 19.40589905 58.17275429 C17.78231497 58.16956625 16.15872803 58.1675999 14.53514099 58.16686058 C12.2779342 58.16470451 10.02085209 58.15597956 7.76367188 58.14526367 C5.83581848 58.13954597 5.83581848 58.13954597 3.86901855 58.13371277 C1 58 1 58 0 57 C-0.09370624 55.22008076 -0.11744271 53.43643261 -0.11352539 51.65405273 C-0.11344986 50.5129454 -0.11337433 49.37183807 -0.11329651 48.19615173 C-0.10813522 46.9545076 -0.10297394 45.71286346 -0.09765625 44.43359375 C-0.0962413 43.16983414 -0.09482635 41.90607452 -0.09336853 40.60401917 C-0.08870582 37.23875111 -0.0797148 33.8735501 -0.06866455 30.50830078 C-0.05844846 27.0765033 -0.05387049 23.64469891 -0.04882812 20.21289062 C-0.0377738 13.47524176 -0.0210171 6.73762475 0 0 Z " fill="#0E038E" transform="translate(316,718)"/>
<path d="M0 0 C50.16 0 100.32 0 152 0 C152 5.61 152 11.22 152 17 C130.55 17 109.1 17 87 17 C87 60.56 87 104.12 87 149 C79.74 149 72.48 149 65 149 C65 105.44 65 61.88 65 17 C43.55 17 22.1 17 0 17 C0 11.39 0 5.78 0 0 Z " fill="#7FE3F6" transform="translate(1128,701)"/>
<path d="M0 0 C43.23 0 86.46 0 131 0 C130.67 0.66 130.34 1.32 130 2 C67.135 2.495 67.135 2.495 3 3 C3 50.52 3 98.04 3 147 C34.4015625 147.0309375 34.4015625 147.0309375 66.4375 147.0625 C76.36928345 147.07615601 76.36928345 147.07615601 86.50170898 147.09008789 C92.41339848 147.09343138 92.41339848 147.09343138 98.3250885 147.09544373 C100.96756328 147.09698391 103.60999106 147.10014115 106.25245667 147.10557556 C110.24439873 147.11367728 114.23632081 147.11390758 118.22827148 147.11352539 C119.4144554 147.1171235 120.60063932 147.12072161 121.82276821 147.12442875 C122.89050504 147.12305125 123.95824186 147.12167376 125.05833435 147.12025452 C126.46176417 147.12163721 126.46176417 147.12163721 127.8935461 147.12304783 C129.98662999 147.23492612 129.98662999 147.23492612 131 146 C131.23481693 143.81707226 131.41363323 141.62796826 131.5625 139.4375 C131.64628906 138.23996094 131.73007812 137.04242187 131.81640625 135.80859375 C131.87699219 134.88175781 131.93757812 133.95492187 132 133 C131.34 133.33 130.68 133.66 130 134 C128.57280498 134.09603973 127.14123492 134.13065756 125.71081543 134.13371277 C124.81064194 134.13797775 123.91046844 134.14224274 122.98301697 134.14663696 C121.99282059 134.14618378 121.00262421 134.14573059 119.98242188 134.14526367 C118.94171036 134.14862228 117.90099884 134.1519809 116.82875061 134.15544128 C113.37540506 134.16497034 109.92210789 134.16689527 106.46875 134.16796875 C104.07743306 134.17117958 101.68611632 134.17454352 99.2947998 134.17805481 C94.27774601 134.18405071 89.26070947 134.1858942 84.24365234 134.18530273 C77.80033665 134.185201 71.35713086 134.19886314 64.91384125 134.21607494 C59.97433968 134.22716695 55.03486493 134.22922282 50.09535217 134.22869301 C47.71899537 134.22987698 45.34263795 134.23432191 42.96629333 134.24202538 C39.64997544 134.25177041 36.33389952 134.24896917 33.01757812 134.24291992 C32.02738174 134.24853943 31.03718536 134.25415894 30.01698303 134.25994873 C28.66672279 134.253657 28.66672279 134.253657 27.28918457 134.24723816 C26.11226421 134.24805531 26.11226421 134.24805531 24.91156769 134.24888897 C23 134 23 134 21 132 C57.96 132 94.92 132 133 132 C133 137.61 133 143.22 133 149 C89.11 149 45.22 149 0 149 C0 99.83 0 50.66 0 0 Z " fill="#8FD7FE" transform="translate(505,701)"/>
<path d="M0 0 C43.23 0 86.46 0 131 0 C131 5.61 131 11.22 131 17 C94.37 17 57.74 17 20 17 C20 16.67 20 16.34 20 16 C56.3 16 92.6 16 130 16 C130 11.38 130 6.76 130 2 C128.50186768 2.00222061 127.00373535 2.00444122 125.46020508 2.00672913 C111.33519673 2.02700916 97.21019355 2.04205571 83.08517456 2.05181217 C75.8235414 2.0569616 68.56191914 2.06397845 61.30029297 2.07543945 C54.96876041 2.0854277 48.63723575 2.09186327 42.30569553 2.09408849 C38.95529797 2.09538858 35.60494079 2.09895975 32.25454712 2.10573006 C28.50822618 2.11299871 24.76195186 2.11398847 21.015625 2.11352539 C19.36160927 2.1189183 19.36160927 2.1189183 17.67417908 2.12442017 C16.64506912 2.1230455 15.61595917 2.12167084 14.55566406 2.12025452 C13.6707428 2.12117631 12.78582153 2.1220981 11.87408447 2.12304783 C8.23344502 1.96718157 4.61583525 1.45197941 1 1 C1 49.51 1 98.02 1 148 C43.57 147.67 86.14 147.34 130 147 C130 142.71 130 138.42 130 134 C94.69 134 59.38 134 23 134 C22.505 133.01 22.505 133.01 22 132 C58.63 132 95.26 132 133 132 C133 137.61 133 143.22 133 149 C89.11 149 45.22 149 0 149 C0 99.83 0 50.66 0 0 Z " fill="#8FD6FE" transform="translate(943,701)"/>
<path d="M0 0 C1.1034375 -0.00773438 2.206875 -0.01546875 3.34375 -0.0234375 C7.72940128 0.5301967 10.36750783 2.12535347 13.3125 5.375 C15.47413035 10.83596088 15.38763723 16.76756565 13.5 22.3125 C9.60634003 26.32783685 4.99667946 28.57511622 -0.625 28.8125 C-6.04902377 28.20011022 -9.14428237 26.8772817 -12.8125 22.8125 C-15.90876295 18.34012018 -16.14963048 14.73445149 -15.5 9.375 C-12.01406903 2.40313806 -7.69212567 -0.05391677 0 0 Z " fill="#110389" transform="translate(633.5,934.625)"/>
<path d="M0 0 C0.33 0 0.66 0 1 0 C1 4.95 1 9.9 1 15 C-20.45 15 -41.9 15 -64 15 C-64 58.56 -64 102.12 -64 147 C-71.26 147 -78.52 147 -86 147 C-86 103.77 -86 60.54 -86 16 C-85.34 16 -84.68 16 -84 16 C-84 58.9 -84 101.8 -84 146 C-78.39 145.67 -72.78 145.34 -67 145 C-66.98969254 143.37357071 -66.97938507 141.74714142 -66.96876526 140.07142639 C-66.8712231 124.78162205 -66.76856728 109.49186112 -66.66066074 94.2021265 C-66.60531058 86.34057688 -66.5518257 78.47902273 -66.50268555 70.61743164 C-66.45986561 63.76771678 -66.41359325 56.91803558 -66.36312145 50.06837267 C-66.33650278 46.43932582 -66.31164936 42.81028573 -66.29092598 39.18120003 C-66.2677645 35.13645577 -66.23689742 31.09180646 -66.20532227 27.04711914 C-66.1995668 25.83511841 -66.19381134 24.62311768 -66.18788147 23.37438965 C-66.17809265 22.27917496 -66.16830383 21.18396027 -66.15821838 20.05555725 C-66.15176583 19.09781434 -66.14531328 18.14007143 -66.1386652 17.15330601 C-66 15 -66 15 -65 14 C-62.97505769 13.90590521 -60.9468013 13.88256878 -58.91967773 13.88647461 C-56.96776772 13.88658791 -56.96776772 13.88658791 -54.97642517 13.88670349 C-53.54548098 13.89181091 -52.11453718 13.89702692 -50.68359375 13.90234375 C-49.2277074 13.90420797 -47.77182043 13.90563185 -46.31593323 13.90663147 C-42.47720621 13.91045635 -38.63851681 13.92028636 -34.79980469 13.93133545 C-30.88542184 13.94155022 -26.97103294 13.94612923 -23.05664062 13.95117188 C-15.37107459 13.96190867 -7.68554735 13.97950521 0 14 C0 9.38 0 4.76 0 0 Z " fill="#7DBAF2" transform="translate(1279,703)"/>
<path d="M0 0 C4.12580674 2.06290337 6.31036118 3.74180711 8 8 C8.62516103 12.35638525 8.98773174 16.93066119 7.0546875 20.98046875 C4.54232687 24.18017333 1.92601766 26.06523389 -2 27 C-6.28317228 27.46725516 -8.42893678 27.30749558 -12.25 25.25 C-15.55103928 22.54914968 -17.74187203 20.69807714 -18.3984375 16.37890625 C-18.31756528 6.66076169 -18.31756528 6.66076169 -15 3 C-10.62746856 -0.84252763 -5.53466008 -0.80584651 0 0 Z " fill="#FC3133" transform="translate(799,757)"/>
<path d="M0 0 C16.4175 -0.04125 32.835 -0.0825 49.75 -0.125 C54.93428711 -0.14320801 60.11857422 -0.16141602 65.45996094 -0.18017578 C71.78955078 -0.18920898 71.78955078 -0.18920898 74.75250244 -0.19088745 C76.8223354 -0.19395905 78.89216478 -0.20099406 80.9619751 -0.21115112 C84.09678366 -0.22576568 87.23137347 -0.22781282 90.36621094 -0.22705078 C91.28865475 -0.234247 92.21109856 -0.24144321 93.16149521 -0.2488575 C94.00665821 -0.2461025 94.85182121 -0.24334751 95.72259521 -0.24050903 C96.45634243 -0.24235262 97.19008965 -0.24419621 97.94607162 -0.24609566 C100 0 100 0 104 2 C70.34 2 36.68 2 2 2 C2 50.18 2 98.36 2 148 C7.94 148 13.88 148 20 148 C20 129.19 20 110.38 20 91 C20.33 91 20.66 91 21 91 C21 110.14 21 129.28 21 149 C14.07 149 7.14 149 0 149 C0 99.83 0 50.66 0 0 Z " fill="#82C2F4" transform="translate(295,701)"/>
<path d="M0 0 C3.01125 -0.061875 6.0225 -0.12375 9.125 -0.1875 C10.06230957 -0.21481201 10.99961914 -0.24212402 11.96533203 -0.27026367 C17.05823607 -0.32070457 20.61308502 0.10575737 25 3 C26.42041821 5.84083641 26.31452272 7.85477278 26 11 C24 13.375 24 13.375 22 15 C22.474375 15.495 22.94875 15.99 23.4375 16.5 C25.62167907 19.99468651 25.65913911 22.90966936 26 27 C24.68 27 23.36 27 22 27 C21.01 24.03 20.02 21.06 19 18 C14.05 17.67 9.1 17.34 4 17 C4 20.3 4 23.6 4 27 C2.68 27 1.36 27 0 27 C0 18.09 0 9.18 0 0 Z " fill="#E7E3F9" transform="translate(756,935)"/>
<path d="M0 0 C0.84365112 -0.00426498 1.68730225 -0.00852997 2.55651855 -0.01292419 C3.94811691 -0.01224442 3.94811691 -0.01224442 5.36782837 -0.0115509 C6.34370911 -0.01490952 7.31958984 -0.01826813 8.32504272 -0.02172852 C11.56799579 -0.0312654 14.81089729 -0.03318363 18.05386353 -0.03425598 C20.30912294 -0.03746892 22.56438214 -0.04083302 24.81964111 -0.04434204 C29.55934125 -0.05034172 34.29902314 -0.05218131 39.03872681 -0.05158997 C45.08870942 -0.05148881 51.13857344 -0.06508897 57.18852806 -0.08236217 C61.85392789 -0.09353231 66.51929963 -0.09550756 71.18471146 -0.09498024 C73.413249 -0.09615481 75.64178741 -0.100547 77.87031174 -0.10831261 C97.06005533 -0.16886972 115.25575277 -0.02819545 130.53042603 13.38371277 C133.48856497 16.72110029 135.72708942 20.29091638 137.96792603 24.13371277 C137.30792603 24.46371277 136.64792603 24.79371277 135.96792603 25.13371277 C135.63921509 24.56523621 135.31050415 23.99675964 134.97183228 23.41105652 C128.76295146 13.33214159 120.3862703 7.42448335 108.88433266 4.62693214 C102.56415697 3.25364884 96.55780522 2.82951668 90.10220337 2.81486511 C89.05030634 2.80471186 87.99840931 2.7945586 86.91463661 2.78409767 C83.54438194 2.75371349 80.17421062 2.73637814 76.80386353 2.71965027 C74.70921115 2.70269486 72.61456558 2.68487595 70.51992798 2.66618347 C62.79433867 2.6032499 55.06862094 2.5569712 47.34292603 2.50871277 C30.05917603 2.38496277 12.77542603 2.26121277 -5.03207397 2.13371277 C-5.03207397 51.30371277 -5.03207397 100.47371277 -5.03207397 151.13371277 C-5.36207397 151.13371277 -5.69207397 151.13371277 -6.03207397 151.13371277 C-6.03207397 101.63371277 -6.03207397 52.13371277 -6.03207397 1.13371277 C-3.76123607 -0.00170618 -2.52117233 0.00575035 0 0 Z " fill="#04157D" transform="translate(300.0320739746094,698.8662872314453)"/>
<path d="M0 0 C50.16 0 100.32 0 152 0 C151.67 0.66 151.34 1.32 151 2 C150.23816941 2.00423194 149.47633883 2.00846388 148.69142246 2.01282406 C130.18137943 2.1159869 111.67137581 2.22460279 93.16140079 2.33933926 C84.21023445 2.39469177 75.25906412 2.44817704 66.30786133 2.49731445 C58.50887109 2.54013151 50.70991044 2.58640314 42.91096586 2.63687855 C38.77889552 2.66349953 34.64683113 2.68835302 30.51472664 2.70907402 C26.62995598 2.72860921 22.74524174 2.75274342 18.86052132 2.78049088 C17.43061341 2.7898779 16.00069311 2.7975472 14.57076645 2.80341911 C12.62678863 2.81165225 10.68284219 2.82651788 8.73890686 2.84178162 C7.64842576 2.84823417 6.55794466 2.85468672 5.43441868 2.8613348 C3.05204321 2.72603991 3.05204321 2.72603991 2 4 C1.67 7.96 1.34 11.92 1 16 C22.45 16 43.9 16 66 16 C65.67 16.66 65.34 17.32 65 18 C43.55 17.67 22.1 17.34 0 17 C0 11.39 0 5.78 0 0 Z " fill="#90D6FE" transform="translate(1128,701)"/>
<path d="M0 0 C35.64 0 71.28 0 108 0 C108 0.66 108 1.32 108 2 C106.68677261 2.01030746 105.37354523 2.02061493 104.02052307 2.03123474 C91.67394014 2.12878493 79.32740969 2.23150105 66.98091221 2.33933926 C60.63271933 2.39461859 54.2845219 2.44804646 47.9362793 2.49731445 C41.8154732 2.54488427 35.69472514 2.59722412 29.57398796 2.65294075 C27.23310723 2.67339787 24.89221057 2.69210525 22.55130196 2.70907402 C19.28487481 2.73304397 16.01855852 2.76310829 12.75219727 2.79467773 C11.773965 2.8004332 10.79573273 2.80618866 9.78785706 2.81211853 C8.90299622 2.82190735 8.01813538 2.83169617 7.10646057 2.84178162 C5.9463841 2.85146044 5.9463841 2.85146044 4.76287174 2.8613348 C2.97342169 2.81008479 2.97342169 2.81008479 2 4 C1.67 18.52 1.34 33.04 1 48 C37.63 48 74.26 48 112 48 C112 48.33 112 48.66 112 49 C75.04 49 38.08 49 0 49 C0 32.83 0 16.66 0 0 Z " fill="#010B7D" transform="translate(964,783)"/>
<path d="M0 0 C7.92 0 15.84 0 24 0 C24 1.32 24 2.64 24 4 C17.4 4 10.8 4 4 4 C4 6.64 4 9.28 4 12 C10.27 12 16.54 12 23 12 C23 12.99 23 13.98 23 15 C16.73 15 10.46 15 4 15 C4 17.97 4 20.94 4 24 C10.6 24 17.2 24 24 24 C24 24.99 24 25.98 24 27 C16.08 27 8.16 27 0 27 C0 18.09 0 9.18 0 0 Z " fill="#E7E2F7" transform="translate(886,935)"/>
<path d="M0 0 C1.1034375 -0.00773438 2.206875 -0.01546875 3.34375 -0.0234375 C7.72940128 0.5301967 10.36750783 2.12535347 13.3125 5.375 C15.47413035 10.83596088 15.38763723 16.76756565 13.5 22.3125 C9.60634003 26.32783685 4.99667946 28.57511622 -0.625 28.8125 C-6.04902377 28.20011022 -9.14428237 26.8772817 -12.8125 22.8125 C-15.90876295 18.34012018 -16.14963048 14.73445149 -15.5 9.375 C-12.01406903 2.40313806 -7.69212567 -0.05391677 0 0 Z M-10.5 8.375 C-12.03214888 11.43929776 -11.72938548 13.9915642 -11.5 17.375 C-9.84860695 20.9136994 -8.78394771 22.18570153 -5.5 24.375 C-0.27789002 25.14295735 4.09026539 25.20425566 8.6875 22.5 C11.24423859 18.09183002 11.39951478 14.35504092 10.5 9.375 C8.39495409 5.81819828 7.41593192 4.68031064 3.5 3.375 C-2.91972581 2.53346291 -6.36059639 2.94203277 -10.5 8.375 Z " fill="#E9E5F7" transform="translate(633.5,934.625)"/>
<path d="M0 0 C1.20785156 0.01289062 2.41570313 0.02578125 3.66015625 0.0390625 C6.69235754 0.34987217 8.47721741 0.61681244 10.9375 2.375 C11.2675 3.365 11.5975 4.355 11.9375 5.375 C10.7928125 5.1275 10.7928125 5.1275 9.625 4.875 C1.09618343 3.59812799 1.09618343 3.59812799 -7.0625 5.375 C-6.7325 7.025 -6.4025 8.675 -6.0625 10.375 C-4.94230469 10.55675781 -3.82210937 10.73851562 -2.66796875 10.92578125 C-1.19520431 11.17905921 0.27744622 11.43300016 1.75 11.6875 C2.48798828 11.80544922 3.22597656 11.92339844 3.98632812 12.04492188 C6.95598799 12.5689795 9.42380967 13.01430226 11.91796875 14.765625 C13.76158287 17.67585113 13.40264996 20.0608065 12.9375 23.375 C10.03276621 26.52599253 8.3808791 27.32188453 4.08984375 27.8359375 C2.68462605 27.82803562 1.2793883 27.79891545 -0.125 27.75 C-0.83205078 27.74871094 -1.53910156 27.74742187 -2.26757812 27.74609375 C-6.00061537 27.68300016 -8.89409631 27.432405 -12.0625 25.375 C-12.0625 24.385 -12.0625 23.395 -12.0625 22.375 C-11.134375 22.54 -10.20625 22.705 -9.25 22.875 C-0.44881886 24.20465922 -0.44881886 24.20465922 7.9375 22.375 C7.9375 20.725 7.9375 19.075 7.9375 17.375 C6.82890625 17.19324219 5.7203125 17.01148438 4.578125 16.82421875 C3.11448223 16.57089596 1.65094596 16.3169573 0.1875 16.0625 C-0.54210937 15.94455078 -1.27171875 15.82660156 -2.0234375 15.70507812 C-6.00930642 14.99849227 -9.17307608 14.4352639 -12.0625 11.375 C-12.625 7.9375 -12.625 7.9375 -12.0625 4.375 C-8.24038677 0.36035494 -5.43987226 -0.12799699 0 0 Z " fill="#EEE8F9" transform="translate(833.0625,934.625)"/>
<path d="M0 0 C36.3 0 72.6 0 110 0 C110 0.33 110 0.66 110 1 C109.17420866 1.00634791 109.17420866 1.00634791 108.33173466 1.01282406 C94.95397692 1.11599929 81.57627376 1.22468024 68.19860935 1.33933926 C61.72934782 1.39461903 55.26008182 1.44804696 48.79077148 1.49731445 C42.55325678 1.54488363 36.31579904 1.59722345 30.07835197 1.65294075 C27.69281359 1.67339816 25.30725956 1.6921055 22.9216938 1.70907402 C19.59300171 1.73304333 16.26441843 1.76310774 12.93579102 1.79467773 C11.93885727 1.8004332 10.94192352 1.80618866 9.91477966 1.81211853 C9.01309052 1.82190735 8.11140137 1.83169617 7.18238831 1.84178162 C6.3942553 1.84823417 5.6061223 1.85468672 4.79410648 1.8613348 C2.97706666 1.80609503 2.97706666 1.80609503 2 3 C1.89889647 5.9453557 1.86030721 8.8667756 1.8671875 11.8125 C1.86623077 12.69655518 1.86527405 13.58061035 1.86428833 14.49145508 C1.86360649 16.36442129 1.86546107 18.23738986 1.86962891 20.11035156 C1.87497711 22.98768388 1.86968407 25.86486008 1.86328125 28.7421875 C1.86394203 30.55729201 1.86522319 32.37239643 1.8671875 34.1875 C1.86516327 35.05415283 1.86313904 35.92080566 1.86105347 36.8137207 C1.48739586 40.72003219 1.48739586 40.72003219 3 44 C4.36561766 44.10741771 5.73667243 44.14678988 7.10646057 44.15821838 C7.99132141 44.1680072 8.87618225 44.17779602 9.78785706 44.18788147 C10.76608932 44.19363693 11.74432159 44.1993924 12.75219727 44.20532227 C13.7764682 44.21522186 14.80073914 44.22512146 15.85604858 44.23532104 C19.2594772 44.26704171 22.66291981 44.29173507 26.06640625 44.31640625 C28.41910679 44.33696666 30.77180356 44.35796288 33.12449646 44.37937927 C39.33052526 44.43469424 45.53658792 44.48406181 51.74267578 44.53222656 C58.07001779 44.58237295 64.39731037 44.63809475 70.72460938 44.69335938 C83.1496974 44.80105615 95.57482826 44.90247537 108 45 C108 45.33 108 45.66 108 46 C72.36 46 36.72 46 0 46 C0 30.82 0 15.64 0 0 Z " fill="#02097F" transform="translate(526,719)"/>
<path d="M0 0 C36.3 0 72.6 0 110 0 C110 0.33 110 0.66 110 1 C109.17420866 1.00634791 109.17420866 1.00634791 108.33173466 1.01282406 C94.95397692 1.11599929 81.57627376 1.22468024 68.19860935 1.33933926 C61.72934782 1.39461903 55.26008182 1.44804696 48.79077148 1.49731445 C42.55325678 1.54488363 36.31579904 1.59722345 30.07835197 1.65294075 C27.69281359 1.67339816 25.30725956 1.6921055 22.9216938 1.70907402 C19.59300171 1.73304333 16.26441843 1.76310774 12.93579102 1.79467773 C11.93885727 1.8004332 10.94192352 1.80618866 9.91477966 1.81211853 C9.01309052 1.82190735 8.11140137 1.83169617 7.18238831 1.84178162 C6.3942553 1.84823417 5.6061223 1.85468672 4.79410648 1.8613348 C2.97706666 1.80609503 2.97706666 1.80609503 2 3 C1.67 16.53 1.34 30.06 1 44 C36.31 44.33 71.62 44.66 108 45 C108 45.33 108 45.66 108 46 C72.36 46 36.72 46 0 46 C0 30.82 0 15.64 0 0 Z " fill="#020980" transform="translate(964,719)"/>
<path d="M0 0 C16.48917717 -0.12032643 16.48917717 -0.12032643 23.5859375 -0.14648438 C28.4047248 -0.16433093 33.22333906 -0.18530907 38.04199219 -0.22631836 C41.93237946 -0.25921567 45.82258085 -0.27691609 49.71309662 -0.28463173 C51.18806631 -0.29012133 52.66302729 -0.30083899 54.13791656 -0.31719017 C67.29479736 -0.45708421 78.17600003 0.5118049 88.5625 9.125 C91.83420613 12.98393544 94.29915142 17.22142542 96 22 C95.505 23.485 95.505 23.485 95 25 C94.00625647 23.03866409 93.03523253 21.07911304 92.140625 19.0703125 C89.25483291 12.76713505 85.87066148 8.63233692 79.8125 5.1875 C70.30717131 2.22682385 60.00497036 2.86303138 50.14453125 2.90234375 C48.74777782 2.90421381 47.35102373 2.90563493 45.95426941 2.90663147 C42.31625488 2.9104104 38.67828165 2.92019995 35.0402832 2.93133545 C31.31266854 2.94165022 27.58504687 2.94620563 23.85742188 2.95117188 C16.57157837 2.96129391 9.28584758 2.98087704 2 3 C1.67 21.15 1.34 39.3 1 58 C0.67 58 0.34 58 0 58 C0 38.86 0 19.72 0 0 Z " fill="#11228D" transform="translate(317,792)"/>
<path d="M0 0 C1.32 0 2.64 0 4 0 C4.02187378 0.83192871 4.02187378 0.83192871 4.04418945 1.68066406 C4.11886897 4.20446242 4.21546025 6.72696654 4.3125 9.25 C4.33505859 10.12269531 4.35761719 10.99539063 4.38085938 11.89453125 C4.53223516 15.50002715 4.66414606 18.29853292 6.234375 21.578125 C8.56328185 23.45361635 9.96705489 23.53573468 12.9375 23.5 C14.21947266 23.51546875 14.21947266 23.51546875 15.52734375 23.53125 C18.98395686 22.78859695 20.01751943 21.95358279 22 19 C22.62165743 15.75461014 22.69641426 12.54795901 22.75 9.25 C22.79447266 7.91775391 22.79447266 7.91775391 22.83984375 6.55859375 C22.91036918 4.37230551 22.96314637 2.18707232 23 0 C24.32 0 25.64 0 27 0 C27.08115993 3.06303578 27.14057409 6.12390815 27.1875 9.1875 C27.21263672 10.05181641 27.23777344 10.91613281 27.26367188 11.80664062 C27.31985702 16.6947481 27.27688877 20.08982486 24 24 C20.76040885 27.22544446 18.12052278 27.4580837 13.625 27.5 C9.48364477 27.41158905 6.52992415 27.33543877 3.25 24.6875 C0.36270527 21.23878685 -0.12686045 18.90220697 -0.09765625 14.55078125 C-0.09443359 13.70322266 -0.09121094 12.85566406 -0.08789062 11.98242188 C-0.07951172 11.10134766 -0.07113281 10.22027344 -0.0625 9.3125 C-0.05798828 8.41982422 -0.05347656 7.52714844 -0.04882812 6.60742188 C-0.03704983 4.40488013 -0.02060164 2.20247401 0 0 Z " fill="#EEE8FC" transform="translate(688,935)"/>
<path d="M0 0 C7.59 0 15.18 0 23 0 C23 1.32 23 2.64 23 4 C16.4 4 9.8 4 3 4 C3 6.97 3 9.94 3 13 C9.27 13 15.54 13 22 13 C22 13.99 22 14.98 22 16 C15.73 16 9.46 16 3 16 C3 19.63 3 23.26 3 27 C2.01 27 1.02 27 0 27 C0 18.09 0 9.18 0 0 Z " fill="#FBF7FE" transform="translate(1012,935)"/>
<path d="M0 0 C2.2734375 -0.33203125 2.2734375 -0.33203125 5 0 C6.9140625 2.30078125 6.9140625 2.30078125 8.625 5.3125 C11.33664107 10.03206263 11.33664107 10.03206263 15 14 C15.67546875 12.989375 16.3509375 11.97875 17.046875 10.9375 C17.94720828 9.62451397 18.84828896 8.31204022 19.75 7 C20.1934375 6.33226562 20.636875 5.66453125 21.09375 4.9765625 C21.53203125 4.34492187 21.9703125 3.71328125 22.421875 3.0625 C22.81987305 2.47597656 23.21787109 1.88945313 23.62792969 1.28515625 C25 0 25 0 29 0 C27.75257696 3.68092045 26.0055643 6.50831724 23.67358398 9.60668945 C19.37142674 15.32618785 16.87571738 19.6673252 17 27 C15.68 27 14.36 27 13 27 C12.98324219 26.46375 12.96648438 25.9275 12.94921875 25.375 C12.00967411 16.84898297 7.24191553 10.98115808 2.3359375 4.24609375 C0 1 0 1 0 0 Z " fill="#E8E3F8" transform="translate(552,935)"/>
<path d="M0 0 C2.62527189 -0.05382106 5.24944713 -0.09358313 7.875 -0.125 C8.62136719 -0.14175781 9.36773438 -0.15851562 10.13671875 -0.17578125 C12.09194461 -0.1933959 14.04742021 -0.10320189 16 0 C18 2 18 2 18.3125 4.4375 C18 7 18 7 16.9609375 8.6484375 C13.9450729 10.72710115 10.83326303 10.31570706 7.3125 10.1875 C6.2596582 10.16719727 6.2596582 10.16719727 5.18554688 10.14648438 C3.45670171 10.11120182 1.72825235 10.05739583 0 10 C0 6.7 0 3.4 0 0 Z " fill="#100283" transform="translate(760,939)"/>
<path d="M0 0 C1.32 0 2.64 0 4 0 C4 7.92 4 15.84 4 24 C9.94 24 15.88 24 22 24 C22 24.99 22 25.98 22 27 C14.74 27 7.48 27 0 27 C0 18.09 0 9.18 0 0 Z " fill="#EAE7F7" transform="translate(950,935)"/>
<path d="M0 0 C4.12580674 2.06290337 6.31036118 3.74180711 8 8 C8.62516103 12.35638525 8.98773174 16.93066119 7.0546875 20.98046875 C4.54232687 24.18017333 1.92601766 26.06523389 -2 27 C-6.28317228 27.46725516 -8.42893678 27.30749558 -12.25 25.25 C-15.55103928 22.54914968 -17.74187203 20.69807714 -18.3984375 16.37890625 C-18.31756528 6.66076169 -18.31756528 6.66076169 -15 3 C-10.62746856 -0.84252763 -5.53466008 -0.80584651 0 0 Z M-14.75 5.5 C-17.38388582 9.86915177 -17.66855949 12.98580382 -17 18 C-15.82986774 21.4203866 -15.12689277 21.91540482 -12 24 C-9.19855546 24.35599164 -9.19855546 24.35599164 -6.125 24.3125 C-5.09632813 24.32925781 -4.06765625 24.34601562 -3.0078125 24.36328125 C0.6722168 23.91881018 3.35898449 22.64101551 6 20 C6.12569503 17.8778002 6.17576773 15.75088655 6.1875 13.625 C6.20876953 11.88089844 6.20876953 11.88089844 6.23046875 10.1015625 C6.24299973 6.83202211 6.24299973 6.83202211 4 4 C3.01 4 2.02 4 1 4 C1 3.34 1 2.68 1 2 C-7.83589977 0.8113376 -7.83589977 0.8113376 -14.75 5.5 Z " fill="#D1385F" transform="translate(799,757)"/>
<path d="M0 0 C4.55555556 0.55555556 4.55555556 0.55555556 6 2 C6.25035974 5.30516934 6.18521952 8.62396041 6.1875 11.9375 C6.19974609 12.87013672 6.21199219 13.80277344 6.22460938 14.76367188 C6.22750977 16.10075195 6.22750977 16.10075195 6.23046875 17.46484375 C6.23457764 18.285896 6.23868652 19.10694824 6.24291992 19.95288086 C6 22 6 22 4 24 C3.02443436 21.07330309 2.9393659 19.55938679 3.12109375 16.55078125 C3.16943359 15.70322266 3.21777344 14.85566406 3.26757812 13.98242188 C3.32365234 13.10134766 3.37972656 12.22027344 3.4375 11.3125 C3.48970703 10.41982422 3.54191406 9.52714844 3.59570312 8.60742188 C3.7252818 6.4045844 3.86024246 4.20221127 4 2 C2.68 2 1.36 2 0 2 C0.05800781 3.31355469 0.11601563 4.62710938 0.17578125 5.98046875 C0.22269048 7.71611023 0.26818939 9.45179023 0.3125 11.1875 C0.35439453 12.05181641 0.39628906 12.91613281 0.43945312 13.80664062 C0.52480673 18.26209866 0.45093845 20.36224419 -2.1875 24.09375 C-5.28578839 26.19370102 -6.63358718 26.55776085 -10.3125 26.3125 C-11.63701172 26.24482422 -11.63701172 26.24482422 -12.98828125 26.17578125 C-13.65214844 26.11777344 -14.31601562 26.05976562 -15 26 C-15.33 25.34 -15.66 24.68 -16 24 C-12.04 24 -8.08 24 -4 24 C-3.24338834 20.97355338 -2.85462299 18.77454136 -2.75390625 15.7421875 C-2.72103516 14.95199219 -2.68816406 14.16179688 -2.65429688 13.34765625 C-2.5928145 11.69155652 -2.5355611 10.03529468 -2.48242188 8.37890625 C-2.44826172 7.59128906 -2.41410156 6.80367187 -2.37890625 5.9921875 C-2.3538501 5.27401855 -2.32879395 4.55584961 -2.30297852 3.81591797 C-2 2 -2 2 0 0 Z " fill="#150A70" transform="translate(711,933)"/>
<path d="M0 0 C3.45831586 -0.02894547 6.91660072 -0.04678 10.375 -0.0625 C11.35984375 -0.07087891 12.3446875 -0.07925781 13.359375 -0.08789062 C14.77089844 -0.09272461 14.77089844 -0.09272461 16.2109375 -0.09765625 C17.51490479 -0.10551147 17.51490479 -0.10551147 18.84521484 -0.11352539 C21 0 21 0 23 1 C24.98800759 1.29303611 26.97665988 1.58233444 28.96826172 1.84985352 C41.79065781 3.60320271 54.04554531 7.02294616 66 12 C65.34 12.66 64.68 13.32 64 14 C63.05084717 13.71334473 63.05084717 13.71334473 62.08251953 13.42089844 C41.25339219 7.15972831 21.73160664 2.50548444 0 1 C0 0.67 0 0.34 0 0 Z " fill="#0C1C86" transform="translate(800,665)"/>
<path d="M0 0 C0.33 0.99 0.66 1.98 1 3 C0.19175781 2.96519531 -0.61648438 2.93039062 -1.44921875 2.89453125 C-3.05216797 2.85392578 -3.05216797 2.85392578 -4.6875 2.8125 C-5.74324219 2.77769531 -6.79898438 2.74289062 -7.88671875 2.70703125 C-11.44101094 3.0415004 -13.19709749 3.81560137 -16 6 C-19.08139387 10.41666454 -18.62670227 15.84881307 -18 21 C-15.97979262 24.53536291 -13.91561075 26.76937948 -10 28 C-5.82317174 28.227827 -2.06363578 27.98512383 2 27 C0.22550808 29.25682026 -0.63187653 29.9470039 -3.5234375 30.36328125 C-4.46445312 30.34652344 -5.40546875 30.32976563 -6.375 30.3125 C-7.31085937 30.30863281 -8.24671875 30.30476562 -9.2109375 30.30078125 C-12.12547646 29.98646823 -14.34408799 29.21206166 -17 28 C-17 27.01 -17 26.02 -17 25 C-17.66 25 -18.32 25 -19 25 C-21.80918866 20.10950963 -21.8884979 15.49712928 -21 10 C-17.06694503 -0.76941962 -10.5681873 -1.3191912 0 0 Z " fill="#430363" transform="translate(800,755)"/>
<path d="M0 0 C7.59 0 15.18 0 23 0 C23 1.32 23 2.64 23 4 C16.4 4 9.8 4 3 4 C2.67 5.98 2.34 7.96 2 10 C1.01 10.495 1.01 10.495 0 11 C0 7.37 0 3.74 0 0 Z " fill="#D4CEEE" transform="translate(1012,935)"/>
<path d="M0 0 C-2 1.33333333 -4 2.66666667 -6 4 C-5.34773438 4.32871094 -4.69546875 4.65742187 -4.0234375 4.99609375 C6.69965247 10.83211174 11.25501789 19.58384487 15 31 C15.58671964 34.05439343 15.84420068 36.88401368 16 40 C14.2582875 36.72241375 13.01068082 33.3628836 11.75 29.875 C8.0922227 20.37331028 4.25076207 12.02588092 -5 7 C-8.61241835 5.47295393 -12.25749177 4.16953382 -16 3 C-16 2.67 -16 2.34 -16 2 C-13.89829344 1.46932659 -11.79352402 0.95077143 -9.6875 0.4375 C-7.92986328 0.00244141 -7.92986328 0.00244141 -6.13671875 -0.44140625 C-3 -1 -3 -1 0 0 Z " fill="#071682" transform="translate(421,778)"/>
<path d="M0 0 C3.75215424 5.62823135 3.55295477 10.32504594 3 17 C1.06029364 25.84552841 -3.07821246 32.49780886 -10.46484375 37.75390625 C-21.37661384 44.56350713 -21.37661384 44.56350713 -26.1640625 43.53515625 C-26.76992188 43.35855469 -27.37578125 43.18195312 -28 43 C-26.43979133 42.34865075 -24.87671421 41.70417036 -23.3125 41.0625 C-22.00732422 40.52302734 -22.00732422 40.52302734 -20.67578125 39.97265625 C-18.11820735 39.0429688 -15.6778677 38.45837375 -13 38 C-13 37.34 -13 36.68 -13 36 C-11.35 35.34 -9.7 34.68 -8 34 C-8 33.34 -8 32.68 -8 32 C-7.401875 31.4225 -6.80375 30.845 -6.1875 30.25 C0.05901993 23.82500807 0.16159062 16.05532535 0.0625 7.625 C0.05798828 6.88894531 0.05347656 6.15289063 0.04882812 5.39453125 C0.03715142 3.59631842 0.01922011 1.79814803 0 0 Z " fill="#061681" transform="translate(859,807)"/>
<path d="M0 0 C9.36294792 4.18432628 14.760196 13.63861064 20 22 C15.96206661 22 14.33248374 20.24025821 11 18 C8.58574452 16.87871245 6.22201267 15.84138145 3.75 14.875 C3.09829834 14.61638184 2.44659668 14.35776367 1.77514648 14.09130859 C-3.38364338 12.10505695 -8.51258117 10.74887128 -14 10 C-14 9.67 -14 9.34 -14 9 C-4.64711568 8.12996425 4.63910259 12.11121051 13 16 C12.21869929 13.50447516 12.21869929 13.50447516 11 11 C10.01 10.67 9.02 10.34 8 10 C6.46484375 8.40625 6.46484375 8.40625 4.9375 6.5 C2.82278233 3.81893599 2.82278233 3.81893599 0 2 C0 1.34 0 0.68 0 0 Z " fill="#0A1E85" transform="translate(857,755)"/>
<path d="M0 0 C0.33 0 0.66 0 1 0 C1 8.91 1 17.82 1 27 C1.99 27 2.98 27 4 27 C4 23.37 4 19.74 4 16 C10.27 16 16.54 16 23 16 C23.33 15.01 23.66 14.02 24 13 C24 14.65 24 16.3 24 18 C18.06 18 12.12 18 6 18 C6 21.3 6 24.6 6 28 C4.02 28 2.04 28 0 28 C0 18.76 0 9.52 0 0 Z " fill="#41368E" transform="translate(1011,935)"/>
<path d="M0 0 C6.27 0 12.54 0 19 0 C19 0.66 19 1.32 19 2 C13.72 2 8.44 2 3 2 C3 3.65 3 5.3 3 7 C8.28 7 13.56 7 19 7 C19 7.66 19 8.32 19 9 C12.73 9 6.46 9 0 9 C0 6.03 0 3.06 0 0 Z " fill="#190D7A" transform="translate(1015,939)"/>
<path d="M0 0 C0.886875 0.45375 1.77375 0.9075 2.6875 1.375 C7.37444748 3.42372756 12.26718048 3.91623983 17.3046875 4.5703125 C20 5 20 5 21 6 C21.25 8.4375 21.25 8.4375 21 11 C16.18221151 14.21185899 10.31680489 13.65994746 4.72265625 12.546875 C3.13012579 12.09093581 1.56079046 11.55494772 0 11 C0 11.99 0 12.98 0 14 C1.32 14.66 2.64 15.32 4 16 C2.35 15.67 0.7 15.34 -1 15 C-1.38218767 13.34385343 -1.71395102 11.67542976 -2 10 C-1 9 -1 9 1.5625 8.9375 C2.366875 8.958125 3.17125 8.97875 4 9 C4 9.66 4 10.32 4 11 C8.95 11 13.9 11 19 11 C19 9.35 19 7.7 19 6 C17.96359375 5.96261719 16.9271875 5.92523437 15.859375 5.88671875 C14.48954816 5.82104212 13.11975809 5.75459536 11.75 5.6875 C11.06808594 5.66494141 10.38617187 5.64238281 9.68359375 5.61914062 C5.59272778 5.40069633 2.89264559 5.01938522 0 2 C0 1.34 0 0.68 0 0 Z " fill="#1C1271" transform="translate(821,946)"/>
<path d="M0 0 C0.33 0.66 0.66 1.32 1 2 C1.639375 2.268125 2.27875 2.53625 2.9375 2.8125 C5.75974989 4.43743175 6.1367412 5.90665598 7 9 C7.125 11.8125 7.125 11.8125 7 14 C5.68 14 4.36 14 3 14 C2.80664062 13.36191406 2.61328125 12.72382812 2.4140625 12.06640625 C2.02347656 10.82697266 2.02347656 10.82697266 1.625 9.5625 C1.36976563 8.73878906 1.11453125 7.91507813 0.8515625 7.06640625 C0.19117773 4.82201984 0.19117773 4.82201984 -2 4 C-4.204364 3.77049681 -6.41392173 3.58924067 -8.625 3.4375 C-9.81351563 3.35371094 -11.00203125 3.26992188 -12.2265625 3.18359375 C-13.59941406 3.09271484 -13.59941406 3.09271484 -15 3 C-15 2.34 -15 1.68 -15 1 C-10.05 0.67 -5.1 0.34 0 0 Z " fill="#F7F3FD" transform="translate(775,948)"/>
<path d="M0 0 C3.80241571 1.52096628 7.36474615 3.14010268 11 5 C8.39417629 5.93065133 7.35801776 6.14917407 4.75 5.0625 C4.1725 4.711875 3.595 4.36125 3 4 C3.061875 5.11375 3.12375 6.2275 3.1875 7.375 C3.0946875 9.169375 3.0946875 9.169375 3 11 C-2.16473278 14.44315519 -8.14449404 12.12749636 -14 11 C-20.8449254 9.37476018 -20.8449254 9.37476018 -24 8 C-24.33 7.34 -24.66 6.68 -25 6 C-23.865625 6.268125 -22.73125 6.53625 -21.5625 6.8125 C-14.09578708 8.48110626 -6.53795727 9.70184433 1 11 C0.67 7.37 0.34 3.74 0 0 Z " fill="#83C8F8" transform="translate(774,792)"/>
<path d="M0 0 C0.33 0 0.66 0 1 0 C1.0272616 2.04159095 1.04651345 4.08328963 1.0625 6.125 C1.07410156 7.26195312 1.08570313 8.39890625 1.09765625 9.5703125 C1 13 1 13 0.49609375 15.9296875 C-0.74639212 23.61940318 0.48521981 30.47820333 2.02148438 37.99609375 C2.73519233 41.69409682 3.09418602 44.39832517 2 48 C-1.29697504 38.81556954 -2.38698497 30.36877705 -2.375 20.625 C-2.37628906 19.61566406 -2.37757813 18.60632813 -2.37890625 17.56640625 C-2.29005382 11.43558887 -1.53627565 5.93616912 0 0 Z " fill="#82C5F6" transform="translate(696,710)"/>
<path d="M0 0 C3.8553294 3.63619877 6.90602789 7.38750503 9.8125 11.8125 C10.21919922 12.39064453 10.62589844 12.96878906 11.04492188 13.56445312 C14.10017836 18.21152392 14.40763835 21.46950359 14 27 C15.32 27 16.64 27 18 27 C17.95359375 26.39671875 17.9071875 25.7934375 17.859375 25.171875 C17.56089194 18.5626072 17.56089194 18.5626072 20 15.4375 C20.66 14.963125 21.32 14.48875 22 14 C21.09276387 18.68738665 20.0452733 23.34193744 19 28 C17.00045254 28.04254356 14.99958364 28.04080783 13 28 C11.49405433 26.49405433 11.87229779 25.06506811 11.78515625 22.96484375 C11.22043989 17.38509251 8.76832037 13.94121892 5.4375 9.5625 C4.41172241 8.17064564 3.38939751 6.77623788 2.37109375 5.37890625 C1.91661865 4.7763501 1.46214355 4.17379395 0.99389648 3.55297852 C0 2 0 2 0 0 Z " fill="#211776" transform="translate(551,935)"/>
<path d="M0 0 C0 3 0 3 -2.3359375 5.48046875 C-3.34126274 6.39137852 -4.35466684 7.29343306 -5.375 8.1875 C-5.88289062 8.65091797 -6.39078125 9.11433594 -6.9140625 9.59179688 C-10.72884067 13 -10.72884067 13 -13 13 C-13.2475 13.680625 -13.495 14.36125 -13.75 15.0625 C-14.97238416 17.93510277 -16.46729901 20.53111323 -18.046875 23.21875 C-19.37960664 25.7094288 -20.20856468 28.29592932 -21 31 C-21.33 31 -21.66 31 -22 31 C-21.52032203 20.20724558 -14.92002194 12.34871013 -7.46484375 5.09375 C-5.08903995 3.07563457 -2.71956889 1.51248751 0 0 Z " fill="#86CAF8" transform="translate(719,679)"/>
<path d="M0 0 C2.97 0.33 5.94 0.66 9 1 C9.33 1.66 9.66 2.32 10 3 C9.030625 2.979375 8.06125 2.95875 7.0625 2.9375 C4.12534105 2.64381501 4.12534105 2.64381501 3 4 C2.84379445 5.41327947 2.74943827 6.8335459 2.68359375 8.25390625 C2.64169922 9.10791016 2.59980469 9.96191406 2.55664062 10.84179688 C2.49766602 12.18854492 2.49766602 12.18854492 2.4375 13.5625 C2.39431641 14.46419922 2.35113281 15.36589844 2.30664062 16.29492188 C2.20021858 18.52978485 2.09820012 20.76476308 2 23 C2.99 23.33 3.98 23.66 5 24 C5 24.33 5 24.66 5 25 C3.35 25 1.7 25 0 25 C0 16.75 0 8.5 0 0 Z " fill="#74ABE9" transform="translate(817,760)"/>
<path d="M0 0 C0 0.33 0 0.66 0 1 C-0.61294922 1.08975098 -1.22589844 1.17950195 -1.85742188 1.27197266 C-14.92159541 3.23355294 -26.83826045 5.82648514 -39 11 C-39.99 11.33 -40.98 11.66 -42 12 C-42.33 11.34 -42.66 10.68 -43 10 C-28.72086009 3.01781535 -15.84014917 -0.26206129 0 0 Z " fill="#0D1F87" transform="translate(763,666)"/>
<path d="M0 0 C2.76953125 -0.30078125 2.76953125 -0.30078125 6 0 C8.01171875 2.08203125 8.01171875 2.08203125 9.6875 4.8125 C11.60347413 7.864845 13.32466112 10.56713896 16 13 C16.268125 12.0925 16.53625 11.185 16.8125 10.25 C17.90131632 7.27008166 18.86391101 5.31409641 21 3 C21.66 3 22.32 3 23 3 C23 2.01 23 1.02 23 0 C23.66 0 24.32 0 25 0 C23.55797524 4.15151338 21.4989562 7.29978445 18.875 10.8125 C17.78832031 12.27623047 17.78832031 12.27623047 16.6796875 13.76953125 C16.12539063 14.50558594 15.57109375 15.24164062 15 16 C12.18238582 13.31714128 9.89729343 10.61762998 7.75 7.375 C7.22921875 6.59898437 6.7084375 5.82296875 6.171875 5.0234375 C5 3 5 3 5 1 C3.35 1 1.7 1 0 1 C0 0.67 0 0.34 0 0 Z " fill="#1B1075" transform="translate(552,934)"/>
<path d="M0 0 C1.43735246 2.87470493 1.38172649 4.81894588 1 8 C-1.5 10.375 -1.5 10.375 -4 12 C-4.33 11.01 -4.66 10.02 -5 9 C-4.67 8.67 -4.34 8.34 -4 8 C-3.83333333 5.5 -3.83333333 5.5 -4 3 C-6.05922402 0.94077598 -10.21708124 1.58572421 -13.0625 1.4375 C-13.82111328 1.39431641 -14.57972656 1.35113281 -15.36132812 1.30664062 C-17.24065438 1.20026367 -19.12030244 1.09960066 -21 1 C-21 0.67 -21 0.34 -21 0 C-18.43788925 -0.19569589 -15.87567609 -0.38180612 -13.3125 -0.5625 C-12.59126953 -0.61857422 -11.87003906 -0.67464844 -11.12695312 -0.73242188 C-7.25709571 -0.9974806 -3.7242933 -1.18921029 0 0 Z " fill="#D4CEEC" transform="translate(781,938)"/>
<path d="M0 0 C0.66 0 1.32 0 2 0 C2.680625 1.85625 2.680625 1.85625 3.375 3.75 C4.4384007 6.59245495 5.55192483 9.32663046 7 12 C7.66 12 8.32 12 9 12 C9 12.66 9 13.32 9 14 C9.845625 14.268125 10.69125 14.53625 11.5625 14.8125 C15 16 15 16 18.4375 17.5 C21.95382926 18.98055969 25.32115653 20.0239803 29 21 C28.67 21.66 28.34 22.32 28 23 C17.49035323 20.72224385 8.30107043 17.05778874 2 8 C0.045038 4.83482343 0 3.94733824 0 0 Z " fill="#0C1D87" transform="translate(727,729)"/>
<path d="M0 0 C4.12960971 1.49957895 7.68272713 3.54227317 11.4375 5.8125 C17.45197937 9.36321674 23.3882727 11.81584209 30.0390625 13.9921875 C32.50792486 14.83251268 34.71282638 15.76157916 37 17 C24.50196296 17.18188411 13.00153372 11.14395266 3 4 C3 3.34 3 2.68 3 2 C2.01 1.67 1.02 1.34 0 1 C0 0.67 0 0.34 0 0 Z " fill="#0A1A86" transform="translate(726,799)"/>
<path d="M0 0 C0.33 0 0.66 0 1 0 C1.33 3.63 1.66 7.26 2 11 C-8.15558679 10.81161643 -16.60166597 8.52275038 -26 5 C-26 4.67 -26 4.34 -26 4 C-20.52696941 4.50676209 -15.70862337 5.64045234 -10.4765625 7.30078125 C-6.99146099 8.28474524 -3.60142579 8.66653465 0 9 C0 6.03 0 3.06 0 0 Z " fill="#0F238C" transform="translate(773,792)"/>
<path d="M0 0 C9.44890017 1.67641777 18.17123016 5.01603085 25 12 C27.16730508 15.24596383 29.1259132 18.5774656 31 22 C30.34 22.33 29.68 22.66 29 23 C28.67128906 22.43152344 28.34257812 21.86304688 28.00390625 21.27734375 C22.15155495 11.77718541 14.65083446 6.27989273 4 3 C2.33832765 2.6426012 0.67254124 2.30248086 -1 2 C-0.67 1.34 -0.34 0.68 0 0 Z " fill="#0A1B85" transform="translate(407,701)"/>
<path d="M0 0 C2.43934225 -0.13501894 4.87124104 -0.23403897 7.3125 -0.3125 C8.34793945 -0.3753418 8.34793945 -0.3753418 9.40429688 -0.43945312 C11.42578125 -0.48828125 11.42578125 -0.48828125 15 0 C17.42034624 2.8499935 18 4.25881718 18 8 C17.34 8 16.68 8 16 8 C15.67 6.35 15.34 4.7 15 3 C11.04 3 7.08 3 3 3 C2.34 5.31 1.68 7.62 1 10 C0.67 10 0.34 10 0 10 C0 6.7 0 3.4 0 0 Z " fill="#100478" transform="translate(760,952)"/>
<path d="M0 0 C1.65 0 3.3 0 5 0 C5 8.25 5 16.5 5 25 C2.36 24.67 -0.28 24.34 -3 24 C-3 23.67 -3 23.34 -3 23 C-1.35 22.67 0.3 22.34 2 22 C2.33 15.07 2.66 8.14 3 1 C2.01 0.67 1.02 0.34 0 0 Z " fill="#75AEEA" transform="translate(766,755)"/>
<path d="M0 0 C5.24481026 0.31786729 8.54543005 3.29984451 12 7 C15.65646058 11.56427148 15.35919285 15.73468344 15.1875 21.3125 C15.17396484 22.14845703 15.16042969 22.98441406 15.14648438 23.84570312 C15.11131217 25.89741498 15.05751048 27.94879275 15 30 C14.67 30 14.34 30 14 30 C13.96261719 29.154375 13.92523438 28.30875 13.88671875 27.4375 C13.50150926 16.3081052 13.50150926 16.3081052 8.09375 7.03125 C6.11184403 5.27913023 4.07957024 3.63363267 2 2 C1.34 1.34 0.68 0.68 0 0 Z " fill="#72B2E7" transform="translate(404,721)"/>
<path d="M0 0 C3.27081471 -0.02902429 6.5415963 -0.04680684 9.8125 -0.0625 C10.74126953 -0.07087891 11.67003906 -0.07925781 12.62695312 -0.08789062 C13.51962891 -0.09111328 14.41230469 -0.09433594 15.33203125 -0.09765625 C16.56530151 -0.10551147 16.56530151 -0.10551147 17.82348633 -0.11352539 C20 0 20 0 23 1 C23 1.66 23 2.32 23 3 C24.32 3.66 25.64 4.32 27 5 C27 5.66 27 6.32 27 7 C26.34 7 25.68 7 25 7 C24 6 23 5 22 4 C19.27498092 3.09166031 17.37766029 2.81640015 14.55078125 2.68359375 C13.70322266 2.64169922 12.85566406 2.59980469 11.98242188 2.55664062 C11.10134766 2.51732422 10.22027344 2.47800781 9.3125 2.4375 C8.41982422 2.39431641 7.52714844 2.35113281 6.60742188 2.30664062 C4.40509892 2.20064647 2.20266527 2.09857949 0 2 C0 1.34 0 0.68 0 0 Z " fill="#150979" transform="translate(756,933)"/>
<path d="M0 0 C0.66 0 1.32 0 2 0 C-0.79223168 6.22882452 -5.69810906 9.6666355 -11.875 12.3125 C-16.59467266 14.05704158 -20.99133609 14.67686039 -26 15 C-22.98516176 12.23639828 -20.21602889 11.54216198 -16.2890625 10.65234375 C-9.55490813 8.73322467 -4.00453084 5.83994081 0 0 Z " fill="#88D0FB" transform="translate(432,765)"/>
<path d="M0 0 C2.875 0.625 2.875 0.625 6 2 C8.98239757 7.15141398 8.85348113 14.21621524 8 20 C5.5 22.75 5.5 22.75 3 24 C2.34 23.67 1.68 23.34 1 23 C1.99 22.1028125 1.99 22.1028125 3 21.1875 C5.86851811 16.61579926 5.67655384 12.27869332 5 7 C3.7777362 4.0427431 2.36596721 2.15087928 0 0 Z " fill="#4D0562" transform="translate(801,758)"/>
<path d="M0 0 C5.94 0 11.88 0 18 0 C18 0.99 18 1.98 18 3 C15.37438891 3.08074203 12.75124324 3.1403623 10.125 3.1875 C9.00544922 3.22520508 9.00544922 3.22520508 7.86328125 3.26367188 C5.6953125 3.29296875 5.6953125 3.29296875 2 3 C1.34 2.01 0.68 1.02 0 0 Z " fill="#FAF4FE" transform="translate(892,959)"/>
<path d="M0 0 C5.61 0 11.22 0 17 0 C17 0.99 17 1.98 17 3 C14.54101345 3.08076963 12.08466258 3.14037143 9.625 3.1875 C8.57699219 3.22520508 8.57699219 3.22520508 7.5078125 3.26367188 C5.4765625 3.29296875 5.4765625 3.29296875 2 3 C1.34 2.01 0.68 1.02 0 0 Z " fill="#FCF7FE" transform="translate(955,959)"/>
<path d="M0 0 C1.11246094 -0.01675781 2.22492187 -0.03351562 3.37109375 -0.05078125 C6.84742148 0.34493292 8.73409635 1.30882714 11.5625 3.3125 C10.9025 3.9725 10.2425 4.6325 9.5625 5.3125 C8.5725 4.6525 7.5825 3.9925 6.5625 3.3125 C3.53028825 2.99376527 3.53028825 2.99376527 0.1875 3.0625 C-0.93398438 3.05734375 -2.05546875 3.0521875 -3.2109375 3.046875 C-6.36762177 3.30674731 -8.59118045 3.96929302 -11.4375 5.3125 C-10.4375 2.3125 -10.4375 2.3125 -8.77734375 1.14453125 C-5.7669707 0.07406471 -3.19231213 0.0110716 0 0 Z " fill="#1E1373" transform="translate(633.4375,932.6875)"/>
<path d="M0 0 C0 0.66 0 1.32 0 2 C-1.43359375 3.15625 -1.43359375 3.15625 -3.4375 4.5 C-8.72497429 8.30244126 -12.79003164 13.06887965 -17 18 C-17.33 17.01 -17.66 16.02 -18 15 C-16.63671875 12.95703125 -16.63671875 12.95703125 -14.6875 10.8125 C-14.05199219 10.09707031 -13.41648437 9.38164063 -12.76171875 8.64453125 C-11 7 -11 7 -9 7 C-8.67 6.01 -8.34 5.02 -8 4 C-5.9375 3.3125 -5.9375 3.3125 -4 3 C-4 2.34 -4 1.68 -4 1 C-2 0 -2 0 0 0 Z " fill="#0C1C87" transform="translate(719,678)"/>
<path d="M0 0 C6.43823468 0.5625642 11.9559787 2.69524038 17.9375 5.0625 C18.90751953 5.43955078 19.87753906 5.81660156 20.87695312 6.20507812 C23.25397143 7.13012466 25.62811317 8.06189182 28 9 C28 9.33 28 9.66 28 10 C22.60974579 10.37606425 22.60974579 10.37606425 19.80859375 8.6484375 C15.63678796 6.19989502 11.16080386 5.12296624 6.53125 3.80664062 C4.67109002 3.25720448 2.8330508 2.63403469 1 2 C0.67 1.34 0.34 0.68 0 0 Z " fill="#87C9F8" transform="translate(851,675)"/>
<path d="M0 0 C0.66 0 1.32 0 2 0 C2.35869565 4.42391304 2.35869565 4.42391304 0.96875 6.65625 C-2.0554093 8.72035873 -5.16631554 8.3157224 -8.6875 8.1875 C-9.7403418 8.16719727 -9.7403418 8.16719727 -10.81445312 8.14648438 C-12.54329829 8.11120182 -14.27174765 8.05739583 -16 8 C-13.14206684 5.14206684 -10.85334416 5.59200059 -6.875 5.375 C-5.59367188 5.30023437 -4.31234375 5.22546875 -2.9921875 5.1484375 C-2.00476563 5.09945312 -1.01734375 5.05046875 0 5 C0 3.35 0 1.7 0 0 Z " fill="#2D237C" transform="translate(776,941)"/>
<path d="M0 0 C0.99 0.33 1.98 0.66 3 1 C4.0592918 4.17787541 4.11458939 6.42588943 4.09765625 9.76171875 C4.09443359 10.87998047 4.09121094 11.99824219 4.08789062 13.15039062 C4.07951172 14.31763672 4.07113281 15.48488281 4.0625 16.6875 C4.05798828 17.86634766 4.05347656 19.04519531 4.04882812 20.25976562 C4.03703273 23.17322789 4.0205727 26.08658863 4 29 C3.67 29 3.34 29 3 29 C2.01 19.43 1.02 9.86 0 0 Z " fill="#77AEE9" transform="translate(694,830)"/>
<path d="M0 0 C2.64 1.32 5.28 2.64 8 4 C5.09986152 6.90013848 3.17108334 8.04439415 -0.5 9.6875 C-1.93859375 10.34298828 -1.93859375 10.34298828 -3.40625 11.01171875 C-6 12 -6 12 -9 12 C-9 11.34 -9 10.68 -9 10 C-7.68 10 -6.36 10 -5 10 C-5 9.34 -5 8.68 -5 8 C-4.43410156 7.80664062 -3.86820313 7.61328125 -3.28515625 7.4140625 C-2.55167969 7.15367187 -1.81820312 6.89328125 -1.0625 6.625 C0.03384766 6.24214844 0.03384766 6.24214844 1.15234375 5.8515625 C3.18682116 5.14728587 3.18682116 5.14728587 4 3 C2.68 2.67 1.36 2.34 0 2 C0 1.34 0 0.68 0 0 Z " fill="#86C7F9" transform="translate(801,807)"/>
<path d="M0 0 C0.33 0 0.66 0 1 0 C1.92037377 5.40719589 2.08441199 10.51322045 2 16 C-1.96 14.35 -5.92 12.7 -10 11 C-10 10.67 -10 10.34 -10 10 C-5.78952566 9.75940147 -4.2099725 10.316011 0 12 C0 8.04 0 4.08 0 0 Z " fill="#7EBBF1" transform="translate(880,695)"/>
<path d="M0 0 C1.17949219 0.10183594 2.35898437 0.20367188 3.57421875 0.30859375 C4.47785156 0.39238281 5.38148438 0.47617187 6.3125 0.5625 C6.3125 0.8925 6.3125 1.2225 6.3125 1.5625 C4.86617187 1.61857422 4.86617187 1.61857422 3.390625 1.67578125 C2.12734375 1.74152344 0.8640625 1.80726563 -0.4375 1.875 C-1.69046875 1.93300781 -2.9434375 1.99101563 -4.234375 2.05078125 C-7.74345399 2.57079182 -9.23355976 3.06044329 -11.6875 5.5625 C-12.4917208 8.16105733 -12.4917208 8.16105733 -12.6875 10.5625 C-14.6875 7.5625 -14.6875 7.5625 -14.5625 5.5625 C-13.42584412 2.96442943 -12.07961516 2.03998289 -9.6875 0.5625 C-6.14075997 -0.61974668 -3.71227005 -0.33079634 0 0 Z " fill="#1E1475" transform="translate(833.6875,933.4375)"/>
<path d="M0 0 C1.50433594 0.01353516 1.50433594 0.01353516 3.0390625 0.02734375 C3.80992187 0.03894531 4.58078125 0.05054688 5.375 0.0625 C1.34207255 2.2969598 -2.07467434 2.60746743 -6.625 3.0625 C-6.625 4.0525 -6.625 5.0425 -6.625 6.0625 C-4.645 6.0625 -2.665 6.0625 -0.625 6.0625 C-2.375 7.1875 -2.375 7.1875 -4.625 8.0625 C-6.875 7.1875 -6.875 7.1875 -8.625 6.0625 C-8.25 3.625 -8.25 3.625 -7.625 1.0625 C-4.98041621 -0.25979189 -2.94738699 -0.03427194 0 0 Z " fill="#21167B" transform="translate(833.625,937.9375)"/>
<path d="M0 0 C2.74790363 4.12185544 3.13695043 6.00794747 3.125 10.9375 C3.12757813 11.99839844 3.13015625 13.05929687 3.1328125 14.15234375 C3 17 3 17 2 20 C1.34 20 0.68 20 0 20 C0 13.4 0 6.8 0 0 Z " fill="#12248D" transform="translate(859,807)"/>
<path d="M0 0 C7.425 0.99 7.425 0.99 15 2 C15 2.33 15 2.66 15 3 C10.23774693 4.97459273 7.03214681 5.06449259 2 4 C1.34 3.67 0.68 3.34 0 3 C0 2.01 0 1.02 0 0 Z " fill="#E3DDF6" transform="translate(821,957)"/>
<path d="M0 0 C-2 1.33333333 -4 2.66666667 -6 4 C-6.33 4.66 -6.66 5.32 -7 6 C-9.97 5.01 -12.94 4.02 -16 3 C-16 2.67 -16 2.34 -16 2 C-13.89829344 1.46932659 -11.79352402 0.95077143 -9.6875 0.4375 C-7.92986328 0.00244141 -7.92986328 0.00244141 -6.13671875 -0.44140625 C-3 -1 -3 -1 0 0 Z " fill="#102A8A" transform="translate(421,778)"/>
<path d="M0 0 C2.55901853 0.9504926 4.87178014 1.91940466 7.1875 3.375 C11.26380115 5.73019622 15.61018786 7.32079031 20 9 C20 9.66 20 10.32 20 11 C4.28739003 6.43108504 4.28739003 6.43108504 0 0 Z " fill="#85C9F8" transform="translate(712,761)"/>
<path d="M0 0 C0.66 0 1.32 0 2 0 C1.34 2.97 0.68 5.94 0 9 C1.423125 9.185625 1.423125 9.185625 2.875 9.375 C6 10 6 10 8 12 C4.37 11.67 0.74 11.34 -3 11 C-1.125 1.125 -1.125 1.125 0 0 Z " fill="#0D2088" transform="translate(815,712)"/>
<path d="M0 0 C0 3 0 3 -2.40625 5.48046875 C-3.43005231 6.39125392 -4.46167034 7.29331192 -5.5 8.1875 C-6.02464844 8.65091797 -6.54929687 9.11433594 -7.08984375 9.59179688 C-8.38666224 10.735355 -9.69249867 11.86867174 -11 13 C-11.33 12.01 -11.66 11.02 -12 10 C-8.27856704 6.08552441 -4.85967024 2.50346649 0 0 Z " fill="#89D4FC" transform="translate(719,679)"/>
<path d="M0 0 C1.65 0 3.3 0 5 0 C3.68 0.33 2.36 0.66 1 1 C1.08737286 4.0429859 1.19430626 7.08318366 1.3125 10.125 C1.33505859 10.9809375 1.35761719 11.836875 1.38085938 12.71875 C1.59847139 17.86230675 2.24699152 21.49776092 5 26 C4.01 26 3.02 26 2 26 C0.40754605 22.48172372 -0.24261382 19.77302648 -0.1953125 15.91796875 C-0.18886719 14.98662109 -0.18242188 14.05527344 -0.17578125 13.09570312 C-0.15902344 12.13599609 -0.14226563 11.17628906 -0.125 10.1875 C-0.11597656 9.20845703 -0.10695313 8.22941406 -0.09765625 7.22070312 C-0.07417182 4.81354939 -0.0413284 2.40690257 0 0 Z " fill="#190E73" transform="translate(687,934)"/>
<path d="M0 0 C1.75215106 0.93347358 3.50163563 1.8719532 5.25 2.8125 C6.71179688 3.59560547 6.71179688 3.59560547 8.203125 4.39453125 C10.63355412 5.78965188 12.80787699 7.26195961 15 9 C11.87709365 8.51421457 9.00419641 8.0013988 6 7 C5.67 7.66 5.34 8.32 5 9 C4.16094435 7.87926138 3.32892169 6.75325453 2.5 5.625 C2.0359375 4.99851562 1.571875 4.37203125 1.09375 3.7265625 C0 2 0 2 0 0 Z " fill="#0E2886" transform="translate(710,761)"/>
<path d="M0 0 C3.99455527 0.61454696 6.74466336 2.70646737 10 5 C9.875 6.8125 9.875 6.8125 9 9 C5.9375 10.75 5.9375 10.75 3 12 C2.34 11.34 1.68 10.68 1 10 C3.31 9.01 5.62 8.02 8 7 C5.44008376 4.98863724 2.95409701 3.37154504 0 2 C0 1.34 0 0.68 0 0 Z " fill="#11218D" transform="translate(800,805)"/>
<path d="M0 0 C0.66 0.33 1.32 0.66 2 1 C1.67773438 1.57105469 1.35546875 2.14210938 1.0234375 2.73046875 C-0.65333689 6.44881195 -0.57711603 10.0004517 0 14 C1.09685873 16.61338514 2.39232905 18.63873329 4 21 C3.01 21 2.02 21 1 21 C1 20.34 1 19.68 1 19 C0.34 19 -0.32 19 -1 19 C-1.94734782 15.7865962 -2.16452421 12.84527553 -2.1875 9.5 C-2.20167969 8.5615625 -2.21585938 7.623125 -2.23046875 6.65625 C-1.99479903 3.94005663 -1.38484654 2.32084954 0 0 Z " fill="#1D1277" transform="translate(619,939)"/>
<path d="M0 0 C6.0521085 0.31036454 10.41407224 3.27011209 15 7 C16.76953125 9.19921875 16.76953125 9.19921875 18 11 C16.0625 10.6875 16.0625 10.6875 14 10 C13.67 9.01 13.34 8.02 13 7 C10.81862203 5.97549761 10.81862203 5.97549761 8 5 C5.31110527 3.71032642 2.65531129 2.35730552 0 1 C0 0.67 0 0.34 0 0 Z " fill="#82C2F5" transform="translate(408,782)"/>
<path d="M0 0 C4.62 0 9.24 0 14 0 C14.33 0.99 14.66 1.98 15 3 C9.72 3 4.44 3 -1 3 C-0.67 2.01 -0.34 1.02 0 0 Z " fill="#370168" transform="translate(786,755)"/>
<path d="M0 0 C1.32 0 2.64 0 4 0 C1.89285714 5.99725275 1.89285714 5.99725275 -1 8 C-3.1015625 7.5703125 -3.1015625 7.5703125 -5 7 C-4.26708288 5.8225266 -3.51296199 4.65823146 -2.75 3.5 C-2.33234375 2.8503125 -1.9146875 2.200625 -1.484375 1.53125 C-0.74960937 0.77328125 -0.74960937 0.77328125 0 0 Z " fill="#E0DAF7" transform="translate(577,935)"/>
<path d="M0 0 C2.23913665 3.35870497 2.6306347 5.60298609 3.25 9.5625 C3.53617187 11.29693359 3.53617187 11.29693359 3.828125 13.06640625 C3.88484375 14.03449219 3.9415625 15.00257813 4 16 C3.34 16.66 2.68 17.32 2 18 C1.46818825 15.75256955 0.94992874 13.50192898 0.4375 11.25 C0.00244141 9.37054687 0.00244141 9.37054687 -0.44140625 7.453125 C-0.93444283 4.40526252 -1.07666879 2.82358172 0 0 Z " fill="#7DBFF1" transform="translate(415,819)"/>
<path d="M0 0 C0.66 0.33 1.32 0.66 2 1 C-0.24307028 2.20250158 -2.4928791 3.3869162 -4.75 4.5625 C-5.70132813 5.07586914 -5.70132813 5.07586914 -6.671875 5.59960938 C-11.50498766 8.09168309 -11.50498766 8.09168309 -14.21582031 7.58959961 C-15.09898926 7.2977478 -15.09898926 7.2977478 -16 7 C-13.3789879 5.80293183 -10.75385304 4.61711354 -8.125 3.4375 C-7.00544922 2.92413086 -7.00544922 2.92413086 -5.86328125 2.40039062 C-3.93450668 1.54026143 -1.9688967 0.76383202 0 0 Z " fill="#081684" transform="translate(795,718)"/>
<path d="M0 0 C0.99 0.66 1.98 1.32 3 2 C1.02 2.99 1.02 2.99 -1 4 C-0.67 7.3 -0.34 10.6 0 14 C-0.99 14.495 -0.99 14.495 -2 15 C-3.19211438 11.42365687 -3.25926574 8.75935317 -3 5 C-1.5 2.0625 -1.5 2.0625 0 0 Z " fill="#2E2283" transform="translate(625,940)"/>
<path d="M0 0 C5.14543016 -0.30267236 7.72979782 0.19065646 12 3 C14.69254991 3.70670728 14.69254991 3.70670728 17 4 C16.67 4.66 16.34 5.32 16 6 C14.26982492 5.54548816 12.54090123 5.08621143 10.8125 4.625 C9.84957031 4.36976563 8.88664063 4.11453125 7.89453125 3.8515625 C5.17789793 3.05233704 2.60862825 2.0968638 0 1 C0 0.67 0 0.34 0 0 Z " fill="#81C4F4" transform="translate(713,865)"/>
<path d="M0 0 C1.9375 0.375 1.9375 0.375 4 1 C5.50934217 4.01868434 5.17510672 6.67297229 5 10 C4.01 11.485 4.01 11.485 3 13 C2.01 12.67 1.02 12.34 0 12 C0.66 11.34 1.32 10.68 2 10 C2.31537716 5.66356399 2.44897847 3.67346771 0 0 Z " fill="#1D117D" transform="translate(843,948)"/>
<path d="M0 0 C0.66 0.33 1.32 0.66 2 1 C2.59355614 3.64860427 2.74209269 6.29197322 3 9 C1.68 9 0.36 9 -1 9 C-1.125 2.25 -1.125 2.25 0 0 Z " fill="#EFEBFA" transform="translate(779,953)"/>
<path d="M0 0 C-0.185625 0.639375 -0.37125 1.27875 -0.5625 1.9375 C-1.15333516 6.07334611 -0.58271759 9.8851173 0 14 C-1.94518337 11.08222494 -3.46061249 8.1457049 -5 5 C-5.33 4.34 -5.66 3.68 -6 3 C-2.25 0 -2.25 0 0 0 Z " fill="#221777" transform="translate(783,946)"/>
<path d="M0 0 C0.33 0 0.66 0 1 0 C0.61471495 6.16456078 -1.47086025 9.98627748 -5 15 C-6 12 -6 12 -4.78515625 9.08203125 C-4.21667969 8.00308594 -3.64820313 6.92414062 -3.0625 5.8125 C-2.49660156 4.72582031 -1.93070313 3.63914062 -1.34765625 2.51953125 C-0.90292969 1.68808594 -0.45820312 0.85664062 0 0 Z " fill="#85CCF9" transform="translate(887,839)"/>
<path d="M0 0 C2.64 0 5.28 0 8 0 C7.34 3.3 6.68 6.6 6 10 C4 6 4 6 4.375 3.75 C4.58125 3.1725 4.7875 2.595 5 2 C3.35 1.67 1.7 1.34 0 1 C0 0.67 0 0.34 0 0 Z " fill="#081981" transform="translate(767,817)"/>
<path d="M0 0 C0.66 0 1.32 0 2 0 C2.433125 1.2375 2.86625 2.475 3.3125 3.75 C4.49131697 6.91596559 5.75231247 9.43121425 8 12 C7.67 12.66 7.34 13.32 7 14 C0 5.89473684 0 5.89473684 0 0 Z " fill="#071682" transform="translate(727,729)"/>
<path d="M0 0 C0.680625 0.33 1.36125 0.66 2.0625 1 C7.09978073 2.71481897 11.88953425 2.23890079 17 1 C17 1.66 17 2.32 17 3 C13.07735595 4.96132202 8.27654774 4.48640203 4 4 C1.3125 2 1.3125 2 0 0 Z " fill="#1F1373" transform="translate(624,955)"/>
<path d="M0 0 C0.625 1.8125 0.625 1.8125 1 4 C0.01 5.485 0.01 5.485 -1 7 C-1.39387788 9.32387947 -1.73486085 11.65793749 -2 14 C-3.98 14 -5.96 14 -8 14 C-8 13.67 -8 13.34 -8 13 C-6.35 13 -4.7 13 -3 13 C-3.03480469 12.39671875 -3.06960938 11.7934375 -3.10546875 11.171875 C-3.32933105 4.5626072 -3.32933105 4.5626072 -1.5 1.4375 C-0.7575 0.7259375 -0.7575 0.7259375 0 0 Z " fill="#140973" transform="translate(572,949)"/>
<path d="M0 0 C0.33 0 0.66 0 1 0 C1.33 3.63 1.66 7.26 2 11 C-0.97 10.67 -3.94 10.34 -7 10 C-7 9.67 -7 9.34 -7 9 C-4.69 9 -2.38 9 0 9 C0 6.03 0 3.06 0 0 Z " fill="#0C2287" transform="translate(773,792)"/>
<path d="M0 0 C0.33 0 0.66 0 1 0 C1.28580155 4.03932853 1.45551292 7.97005043 1 12 C-1.5 14.75 -1.5 14.75 -4 16 C-4.66 15.67 -5.32 15.34 -6 15 C-5.195625 14.195625 -4.39125 13.39125 -3.5625 12.5625 C-0.31186942 8.73336737 -0.11926137 4.8788744 0 0 Z " fill="#33006B" transform="translate(808,766)"/>
<path d="M0 0 C-2.10016623 1.17441535 -4.20458755 2.33964012 -6.3125 3.5 C-6.90740234 3.83386719 -7.50230469 4.16773438 -8.11523438 4.51171875 C-10.95828844 6.06825114 -12.70660988 7 -16 7 C-5.01179071 -1.6705969 -5.01179071 -1.6705969 0 0 Z " fill="#0B1E85" transform="translate(748,697)"/>
<path d="M0 0 C1.2065625 0.495 1.2065625 0.495 2.4375 1 C6.20926507 2.05874107 9.17664392 2.08562482 13.046875 1.875 C15 2 15 2 17 4 C11.31150252 5.49697302 6.58190932 4.3348044 1 3 C0.67 2.01 0.34 1.02 0 0 Z " fill="#160979" transform="translate(623,960)"/>
<path d="M0 0 C0 3.86817267 -1.08530516 4.54640451 -3.75 7.25 C-4.79414062 8.34054687 -4.79414062 8.34054687 -5.859375 9.453125 C-8 11 -8 11 -10.265625 10.734375 C-10.83796875 10.49203125 -11.4103125 10.2496875 -12 10 C-11.46890625 9.61328125 -10.9378125 9.2265625 -10.390625 8.828125 C-6.67177773 6.08649307 -3.14670262 3.40892784 0 0 Z " fill="#86C9F9" transform="translate(857,836)"/>
<path d="M0 0 C1.2065625 0.0309375 1.2065625 0.0309375 2.4375 0.0625 C2.1075 1.0525 1.7775 2.0425 1.4375 3.0625 C0.4475 2.7325 -0.5425 2.4025 -1.5625 2.0625 C-1.5625 3.0525 -1.5625 4.0425 -1.5625 5.0625 C-0.2425 5.7225 1.0775 6.3825 2.4375 7.0625 C0.7875 6.7325 -0.8625 6.4025 -2.5625 6.0625 C-2.94468767 4.40635343 -3.27645102 2.73792976 -3.5625 1.0625 C-2.5625 0.0625 -2.5625 0.0625 0 0 Z " fill="#261A82" transform="translate(822.5625,954.9375)"/>
<path d="M0 0 C4.5076467 0.53031138 7.41954788 2.25221116 11 5 C11 5.66 11 6.32 11 7 C7.2089881 5.55049545 3.6125362 3.84827434 0 2 C0 1.34 0 0.68 0 0 Z " fill="#0D1E8A" transform="translate(779,793)"/>
<path d="M0 0 C0.33 0.66 0.66 1.32 1 2 C0.0625 4.125 0.0625 4.125 -1 6 C-1.66 6 -2.32 6 -3 6 C-3.66 7.65 -4.32 9.3 -5 11 C-5.99 11 -6.98 11 -8 11 C-5.36 7.37 -2.72 3.74 0 0 Z " fill="#1D1176" transform="translate(581,936)"/>
<path d="M0 0 C0.33 0 0.66 0 1 0 C1.33 3.63 1.66 7.26 2 11 C-0.475 10.01 -0.475 10.01 -3 9 C-2.34 8.34 -1.68 7.68 -1 7 C-0.59952556 4.67724823 -0.2602896 2.34260643 0 0 Z " fill="#7DB6F0" transform="translate(811,737)"/>
<path d="M0 0 C2.8125 -0.3125 2.8125 -0.3125 6 0 C8.31141604 2.85074644 9 4.3139451 9 8 C8.34 8 7.68 8 7 8 C6.34 5.69 5.68 3.38 5 1 C3.35 1 1.7 1 0 1 C0 0.67 0 0.34 0 0 Z " fill="#291F7D" transform="translate(769,952)"/>
<path d="M0 0 C3.95646959 2.08813673 6.54814337 4.22791287 9 8 C8.67 8.99 8.34 9.98 8 11 C7.62875 10.1028125 7.62875 10.1028125 7.25 9.1875 C5.83555909 6.71222841 4.27139812 5.66569196 2 4 C2 3.34 2 2.68 2 2 C1.34 2 0.68 2 0 2 C0 1.34 0 0.68 0 0 Z " fill="#091B83" transform="translate(849,794)"/>
<path d="M0 0 C3.34998521 1.11666174 3.79340222 1.74694925 5.6875 4.5625 C6.12449219 5.20316406 6.56148437 5.84382812 7.01171875 6.50390625 C7.33785156 6.99761719 7.66398438 7.49132812 8 8 C7.67 8.66 7.34 9.32 7 10 C6.01524786 8.90081184 5.03739527 7.7954398 4.0625 6.6875 C3.51722656 6.07261719 2.97195313 5.45773437 2.41015625 4.82421875 C1 3 1 3 0 0 Z " fill="#85C7F9" transform="translate(708,777)"/>
<path d="M0 0 C4.2742558 1.5830577 6.26531794 4.50568404 9 8 C8.01 8.495 8.01 8.495 7 9 C7 8.34 7 7.68 7 7 C6.34 7 5.68 7 5 7 C5 6.34 5 5.68 5 5 C4.34 5 3.68 5 3 5 C3 4.34 3 3.68 3 3 C2.01 2.67 1.02 2.34 0 2 C0 1.34 0 0.68 0 0 Z " fill="#83C6F8" transform="translate(862,744)"/>
<path d="M0 0 C0.66 0 1.32 0 2 0 C0.34832443 3.5786304 -1.78286492 6.74820188 -4 10 C-4.33 9.01 -4.66 8.02 -5 7 C-4.07421875 5.17578125 -4.07421875 5.17578125 -2.6875 3.3125 C-2.23761719 2.68988281 -1.78773438 2.06726563 -1.32421875 1.42578125 C-0.88722656 0.95527344 -0.45023438 0.48476563 0 0 Z " fill="#8AD5FD" transform="translate(732,701)"/>
<path d="M0 0 C8.57142857 0.71428571 8.57142857 0.71428571 12 4 C8.35839192 5.21386936 7.66834531 4.6674695 4.3125 3.0625 C3.10013672 2.49208984 3.10013672 2.49208984 1.86328125 1.91015625 C1.24839844 1.60980469 0.63351562 1.30945313 0 1 C0 0.67 0 0.34 0 0 Z " fill="#80C1F3" transform="translate(701,860)"/>
<path d="M0 0 C3.94139078 1.66751148 6.7892812 4.22710649 10 7 C9.01 7.33 8.02 7.66 7 8 C6.67 7.01 6.34 6.02 6 5 C4.08333333 3.83333333 4.08333333 3.83333333 2 3 C1.34 2.67 0.68 2.34 0 2 C0 1.34 0 0.68 0 0 Z " fill="#86C9FA" transform="translate(723,781)"/>
<path d="M0 0 C3.36016893 1.12005631 4.69064913 2.37211797 7 5 C7 5.66 7 6.32 7 7 C7.66 7.33 8.32 7.66 9 8 C6 8 6 8 4.39453125 6.7578125 C3.87246094 6.21898437 3.35039063 5.68015625 2.8125 5.125 C2.28269531 4.59132813 1.75289062 4.05765625 1.20703125 3.5078125 C0 2 0 2 0 0 Z " fill="#84C9F8" transform="translate(857,752)"/>
<path d="M0 0 C4.83256305 0.41421969 6.82679218 2.46413986 10 6 C6.05957221 6 4.91141781 4.53815912 2 2 C1.34 1.34 0.68 0.68 0 0 Z " fill="#7DBFF1" transform="translate(404,721)"/>
<path d="M0 0 C-1.269553 0.64834654 -2.54069706 1.29357815 -3.8125 1.9375 C-4.52019531 2.29714844 -5.22789062 2.65679688 -5.95703125 3.02734375 C-8 4 -8 4 -11 5 C-10 2 -10 2 -7.1875 0.25 C-3.86017895 -1.05483179 -3.20415723 -1.02866653 0 0 Z " fill="#82C4F5" transform="translate(745,697)"/>
<path d="M0 0 C-0.33 0.99 -0.66 1.98 -1 3 C-3.97 3 -6.94 3 -10 3 C-7.14414946 0.14414946 -3.95889689 0 0 0 Z " fill="#13077C" transform="translate(707,962)"/>
<path d="M0 0 C0.66 0 1.32 0 2 0 C0.6302836 3.99500618 -1.25722422 6.80009492 -4 10 C-3.125 5.25 -3.125 5.25 -2 3 C-1.34 3 -0.68 3 0 3 C0 2.01 0 1.02 0 0 Z " fill="#20157C" transform="translate(575,934)"/>
<path d="M0 0 C6.15234375 0.5859375 6.15234375 0.5859375 8 1 C8.33 1.66 8.66 2.32 9 3 C8.05125 2.979375 7.1025 2.95875 6.125 2.9375 C3.09333717 2.77448174 3.09333717 2.77448174 1 4 C0.67 2.68 0.34 1.36 0 0 Z " fill="#88CFFA" transform="translate(818,760)"/>
<path d="M0 0 C5.39449293 -0.27429625 8.51925805 -0.36055646 13 3 C12.34 3.66 11.68 4.32 11 5 C10.484375 4.525625 9.96875 4.05125 9.4375 3.5625 C6.33217325 1.57190593 3.63367496 1.34939182 0 1 C0 0.67 0 0.34 0 0 Z " fill="#170C7A" transform="translate(632,933)"/>
<path d="M0 0 C-1.33332095 3.99996286 -3.4957827 4.83782337 -7 7 C-7.66 6.67 -8.32 6.34 -9 6 C-7.8803014 4.99406757 -6.7540588 3.9954151 -5.625 3 C-4.68527344 2.1646875 -4.68527344 2.1646875 -3.7265625 1.3125 C-2 0 -2 0 0 0 Z " fill="#041381" transform="translate(878,859)"/>
<path d="M0 0 C2.99693138 0.99897713 4.02709413 1.65130253 6 4 C6 4.66 6 5.32 6 6 C6.66 6.33 7.32 6.66 8 7 C5 7 5 7 2.3125 4.625 C0 2 0 2 0 0 Z " fill="#0C1E89" transform="translate(722,777)"/>
<path d="M0 0 C0.99 0.33 1.98 0.66 3 1 C1.68 1.33 0.36 1.66 -1 2 C-0.67 2.99 -0.34 3.98 0 5 C-0.99 5 -1.98 5 -3 5 C-3.66 4.34 -4.32 3.68 -5 3 C-2.6875 1.4375 -2.6875 1.4375 0 0 Z " fill="#82BCF5" transform="translate(783,725)"/>
<path d="M0 0 C3.63 1.32 7.26 2.64 11 4 C11 4.33 11 4.66 11 5 C6.37390802 5.3227506 3.71973879 4.84450614 0 2 C0 1.34 0 0.68 0 0 Z " fill="#80C0F3" transform="translate(868,680)"/>
<path d="M0 0 C1.07349791 4.29399165 0.79682816 5.19495213 -1 9 C-1.99 9 -2.98 9 -4 9 C-2.68 6.03 -1.36 3.06 0 0 Z " fill="#0D1F87" transform="translate(889,839)"/>
<path d="M0 0 C0.66 0.66 1.32 1.32 2 2 C1.6730244 4.61580479 1.17960932 6.64078137 0 9 C-0.66 9 -1.32 9 -2 9 C-1.34 6.03 -0.68 3.06 0 0 Z " fill="#81C3F4" transform="translate(861,824)"/>
<path d="M0 0 C5.53846154 -0.36923077 5.53846154 -0.36923077 7.875 1.5 C8.24625 1.995 8.6175 2.49 9 3 C2.84765625 2.4140625 2.84765625 2.4140625 1 2 C0.67 1.34 0.34 0.68 0 0 Z " fill="#172E94" transform="translate(757,799)"/>
<path d="M0 0 C6.52307692 -0.36923077 6.52307692 -0.36923077 8.9375 1.5 C9.288125 1.995 9.63875 2.49 10 3 C2.25 2.25 2.25 2.25 0 0 Z " fill="#79B6EB" transform="translate(746,775)"/>
<path d="M0 0 C1 3 1 3 -0.4375 6.1875 C-1.2109375 7.5796875 -1.2109375 7.5796875 -2 9 C-2.66 9 -3.32 9 -4 9 C-2.94124926 5.59687262 -1.99097846 2.98646769 0 0 Z " fill="#10258A" transform="translate(731,705)"/>
</svg>
